<svg width="375" height="812" viewBox="0 0 375 812" fill="none" xmlns="http://www.w3.org/2000/svg">
<g clip-path="url(#clip0_601_35)">
<rect width="375" height="812" fill="#0A423F"/>
<path fill-rule="evenodd" clip-rule="evenodd" d="M-150.355 537.172C-95.322 742.557 115.788 864.441 321.172 809.408C523.124 755.295 644.344 550.279 596.02 348.183C595.741 347.004 595.456 345.824 595.163 344.645C594.855 343.351 594.527 342.057 594.181 340.764C594.14 340.613 594.1 340.462 594.059 340.312C594.014 340.142 593.969 339.973 593.923 339.803C593.886 339.666 593.849 339.529 593.812 339.392C593.764 339.208 593.715 339.025 593.666 338.842C593.625 338.69 593.584 338.538 593.543 338.386C593.498 338.218 593.453 338.049 593.408 337.881C538.376 132.497 327.266 10.6127 121.882 65.6453C-83.503 120.678 -205.387 331.788 -150.355 537.172ZM583.365 319.337C585.471 325.804 587.417 332.363 589.198 339.009C591.607 348 593.674 357.003 595.405 366.002C592.501 393.517 573.058 417.703 544.735 425.292C508.006 435.133 470.253 413.337 460.411 376.608C450.57 339.879 472.367 302.126 509.096 292.284C537.854 284.578 567.241 296.269 583.365 319.337ZM582.556 316.881C565.975 294.882 537.134 283.955 508.892 291.523C471.742 301.477 449.696 339.662 459.65 376.812C469.604 413.961 507.789 436.008 544.939 426.053C572.739 418.604 592.081 395.346 595.885 368.543C596.106 369.733 596.32 370.922 596.529 372.112C594.813 416.571 564.537 456.644 519.306 468.763C463.687 483.666 406.519 450.66 391.616 395.041C376.713 339.423 409.719 282.254 465.338 267.351C511.31 255.033 558.341 275.447 581.688 314.307C581.98 315.163 582.269 316.021 582.556 316.881ZM465.029 266.198C509.153 254.375 554.243 272.365 578.911 307.82C548.17 254.143 484.143 225.655 421.58 242.419C347.072 262.383 302.856 338.968 322.82 413.475C342.785 487.983 419.369 532.199 493.877 512.235C556.26 495.519 597.408 439.11 597.43 377.462L597.399 377.273C593.633 420.171 563.622 458.125 519.615 469.916C463.36 484.99 405.536 451.606 390.463 395.35C375.389 339.095 408.774 281.272 465.029 266.198ZM573.703 296.6C534.587 230.021 454.56 194.876 376.349 215.832C282.427 240.999 226.69 337.538 251.856 431.46C277.022 525.381 373.562 581.119 467.483 555.952C542.494 535.853 593.149 470.229 597.686 396.772C590.088 451.288 550.804 498.637 494.291 513.779C418.93 533.972 341.468 489.25 321.276 413.889C301.083 338.528 345.805 261.067 421.166 240.874C480.263 225.039 540.653 249.124 573.703 296.6ZM375.827 213.885C448.966 194.288 523.675 223.196 565.799 280.89C517.082 203.277 421.827 162.904 328.687 187.861C214.302 218.511 146.421 336.084 177.07 450.469C207.719 564.854 325.293 632.735 439.678 602.085C529.107 578.123 590.11 501.028 597.825 413.865C587.091 481.123 538.045 539.132 468.005 557.9C373.008 583.354 275.363 526.979 249.909 431.982C224.455 336.985 280.83 239.34 375.827 213.885ZM550.897 256.182C498.438 193.25 412.388 162.892 328.051 185.49C212.357 216.49 143.698 335.41 174.699 451.104C205.699 566.799 324.619 635.457 440.313 604.457C524.649 581.859 583.992 512.543 597.957 431.813C586.912 531.076 516.54 618.148 414.248 645.557C280.974 681.267 143.985 602.177 108.274 468.903C72.5638 335.628 151.655 198.639 284.929 162.929C387.22 135.52 491.701 175.74 550.897 256.182ZM393.057 681.783C500.826 652.906 576.908 564.802 595.666 461.875C575.049 549.563 508.09 623.374 414.989 648.32C280.189 684.439 141.631 604.443 105.511 469.643C69.3917 334.843 149.388 196.285 284.188 160.165C377.289 135.219 472.182 165.661 533.881 231.292C466.173 151.534 356.232 113.275 248.464 142.151C99.4485 182.08 11.0163 335.249 50.9448 484.264C90.8733 633.279 244.042 721.711 393.057 681.783ZM596.074 475.672C575.361 591.321 490.037 690.419 369.041 722.839C202.186 767.548 30.6798 668.529 -14.0289 501.674C-58.7376 334.819 40.2816 163.313 207.137 118.604C328.132 86.1833 451.573 129.342 527.336 219.14C458.363 145.377 351.992 111.1 247.636 139.062C96.9144 179.448 7.46964 334.371 47.8553 485.092C88.241 635.813 243.164 725.258 393.885 684.872C498.242 656.91 573.223 574.039 596.074 475.672ZM344.061 764.142C472.585 729.704 564.851 627.493 592.712 506.263C563.442 610.119 481.758 696.345 369.968 726.299C201.202 771.519 27.7323 671.366 -17.4883 502.601C-62.7089 333.835 37.4441 160.365 206.21 115.145C324.223 83.5229 444.537 122.987 521.69 207.289C437.763 106.057 299.672 57.1399 164.337 93.4028C-20.8829 143.032 -130.8 333.415 -81.1709 518.634C-31.5415 703.854 158.841 813.771 344.061 764.142ZM592.387 523.594C561.535 656.013 460.554 767.549 320.044 805.198C116.985 859.608 -91.735 739.103 -146.145 536.044C-200.554 332.985 -80.0498 124.265 123.01 69.8553C263.519 32.2059 406.739 78.3076 499.668 177.56C413.884 93.8961 287.449 56.2991 163.308 89.5627C-24.0327 139.76 -135.209 332.323 -85.011 519.663C-34.8134 707.004 157.749 818.18 345.09 767.982C469.231 734.718 559.929 638.941 592.387 523.594Z" fill="url(#paint0_linear_601_35)" fill-opacity="0.08"/>
<g clip-path="url(#clip1_601_35)">
<path fill-rule="evenodd" clip-rule="evenodd" d="M244.787 507.351L208.857 514.218L207.652 512.539L242.139 504.001L248.291 459.591L250.664 464.935L244.787 507.351Z" fill="white"/>
<path d="M2.48047 485.319H12.489V519.253" stroke="white" stroke-width="0.876403" stroke-linecap="round" stroke-linejoin="round"/>
<path d="M15.7847 491.893H25.7932V519.254" stroke="white" stroke-width="0.876403" stroke-linecap="round" stroke-linejoin="round"/>
<path fill-rule="evenodd" clip-rule="evenodd" d="M352.008 763.534L350.921 803.656L299.301 773.963L352.008 763.534Z" fill="#272626"/>
<path fill-rule="evenodd" clip-rule="evenodd" d="M244.438 623.223L107.176 660.19C107.176 660.19 33.996 674.878 36.783 706.534C39.5699 738.19 121.373 811.895 121.373 811.895H365.241L196.499 714.825C177.095 703.659 161.688 696.596 190.592 683.712C210.083 672.582 305.979 644.239 305.979 644.239L252.255 625.887L244.438 623.223Z" fill="#74A99A"/>
<path d="M30.2104 497.606L36.0473 496.327L41.1129 518.99" stroke="white" stroke-width="0.876403" stroke-linecap="round" stroke-linejoin="round"/>
<path d="M85.6863 485.319H92.1366V519.253" stroke="white" stroke-width="0.876403" stroke-linecap="round" stroke-linejoin="round"/>
<path d="M97.0793 477.08H103.53V519.253" stroke="white" stroke-width="0.876403" stroke-linecap="round" stroke-linejoin="round"/>
<path d="M108.087 490.386H118.341V519.254" stroke="white" stroke-width="0.876403" stroke-linecap="round" stroke-linejoin="round"/>
<path d="M123.284 487.334H128.419V519.253" stroke="white" stroke-width="0.876403" stroke-linecap="round" stroke-linejoin="round"/>
<path d="M133.029 487.334H138.165V519.253" stroke="white" stroke-width="0.876403" stroke-linecap="round" stroke-linejoin="round"/>
<path d="M5.3894 543.495H11.8573V577.429" stroke="white" stroke-width="0.876403" stroke-linecap="round" stroke-linejoin="round"/>
<path d="M16.0999 549.015H24.1978V577.428" stroke="white" stroke-width="0.876403" stroke-linecap="round" stroke-linejoin="round"/>
<path d="M27.3701 541.672H35.4681V577.43" stroke="white" stroke-width="0.876403" stroke-linecap="round" stroke-linejoin="round"/>
<path d="M41.3049 555.344H44.3373V577.43" stroke="white" stroke-width="0.876403" stroke-linecap="round" stroke-linejoin="round"/>
<path d="M49.5259 551.032H58.6405V577.429" stroke="white" stroke-width="0.876403" stroke-linecap="round" stroke-linejoin="round"/>
<path fill-rule="evenodd" clip-rule="evenodd" d="M229.714 673.072L221.108 697.629L182.616 720.801L190.977 739.17C190.977 739.17 238.899 722.851 246.594 714.613C254.288 706.375 259.722 686.481 259.722 686.481L229.714 673.072Z" fill="white" stroke="#272626" stroke-width="0.876403" stroke-linecap="round" stroke-linejoin="round"/>
<path fill-rule="evenodd" clip-rule="evenodd" d="M175.395 611.286L178.409 607.325C178.409 607.325 178.041 598.193 179.444 595.581C180.828 592.987 192.064 589.481 192.064 589.481L204.018 599.42C204.018 599.42 199.759 607.307 194.64 611.479C189.505 615.651 187.156 618.946 187.156 618.946L175.395 611.286Z" fill="white" stroke="#272626" stroke-width="0.876403" stroke-linecap="round" stroke-linejoin="round"/>
<path d="M72.6435 602.442C72.6435 603.774 71.5743 604.843 70.2597 604.843C68.9275 604.843 67.8583 603.774 67.8583 602.442V586.035C29.5245 586.088 -6.28535 586.228 -6.47816 586.228C-7.79277 586.228 -8.86198 585.159 -8.86198 583.844C-8.86198 582.53 -7.79277 581.461 -6.47816 581.461C-6.28535 581.461 29.5069 581.32 67.8583 581.268V528.649C29.3667 528.631 -6.28535 528.596 -6.47816 528.596C-7.79277 528.596 -8.86198 527.527 -8.86198 526.212C-8.86198 524.898 -7.79277 523.828 -6.47816 523.828C-6.28535 523.828 29.3667 523.863 67.8583 523.881V467.318H-6.70603C-8.02063 467.318 -9.08984 466.249 -9.08984 464.934C-9.08984 463.602 -8.02063 462.533 -6.70603 462.533H70.2597H156.866C158.18 462.533 159.25 463.602 159.25 464.934V587.508C159.25 588.822 158.18 589.892 156.866 589.892C155.534 589.892 154.464 588.822 154.464 587.508V586.176C141.301 585.983 106.525 585.965 72.6435 586.018V602.442ZM72.6435 467.318V523.881C105.474 523.898 139.408 523.898 154.464 523.846V467.318H72.6435ZM154.464 528.613C139.39 528.666 105.474 528.666 72.6435 528.649V581.25C106.473 581.198 141.213 581.215 154.464 581.408V528.613Z" fill="#74A99A"/>
<path fill-rule="evenodd" clip-rule="evenodd" d="M101.952 576.967L96.3609 576.599C81.6198 580.209 74.3456 583.172 67.6324 593.303C60.9367 603.434 51.6818 640.786 55.3627 654.967C59.0261 669.147 72.4526 670.531 88.6661 670.917C104.862 671.303 130.313 670.023 130.313 670.023L134.905 652.723L138.884 651.654L139.305 644.327C139.305 644.327 154.764 659.261 166.403 651.671C178.059 644.064 193.957 615.896 193.957 615.896L176.99 606.519L157.359 627.29C157.359 627.29 148.402 589.78 139.795 583.452C131.172 577.124 120.094 576.581 120.094 576.581C120.094 576.581 107.053 581.927 101.952 576.967Z" fill="#ABD1C6"/>
<path fill-rule="evenodd" clip-rule="evenodd" d="M145.474 608.883L147.683 611.863L197.498 569.357L208.681 532.268L206.262 530.988C206.262 530.988 202.335 532.986 198.725 538.368C195.114 543.749 194.045 548.499 193.694 551.444C193.343 554.388 193.414 557.175 193.414 557.175C182.336 556.614 167.612 558.612 158.2 564.572L145.474 608.883Z" fill="white" stroke="#272626" stroke-width="0.876403" stroke-linecap="round" stroke-linejoin="round"/>
<path fill-rule="evenodd" clip-rule="evenodd" d="M319.203 529.083L319.343 529.118C321.166 524.42 325.18 513.36 325.285 506.121C325.408 496.761 322.428 488.838 314.383 488.014C297.696 486.314 290.807 501.371 287.162 514.85C290.264 517.637 291.842 522.194 290.948 526.909C289.633 533.815 283.481 538.443 277.223 537.251C270.948 536.059 266.934 529.486 268.249 522.58C269.511 515.954 275.243 511.414 281.255 512.133C283.095 506.068 289.878 488.032 305.654 486.244C324.654 484.088 331.227 496.761 331.104 509.171C331.017 518.285 327.353 528.154 325.425 532.746C327.827 535.568 328.966 539.6 328.177 543.754C326.863 550.642 320.71 555.287 314.453 554.095C308.178 552.886 304.164 546.33 305.478 539.424C306.793 532.518 312.945 527.891 319.203 529.083Z" fill="#E16961"/>
<path d="M317.506 550.575C321.888 551.409 326.184 548.173 327.102 543.347C328.02 538.521 325.213 533.934 320.832 533.1C316.451 532.266 312.155 535.502 311.236 540.328C310.318 545.154 313.125 549.741 317.506 550.575Z" stroke="white" stroke-width="0.835938" stroke-linecap="round" stroke-linejoin="round"/>
<path d="M279.459 533.175C283.496 533.943 287.455 530.962 288.301 526.515C289.147 522.068 286.56 517.841 282.523 517.073C278.486 516.304 274.528 519.286 273.682 523.733C272.835 528.18 275.422 532.407 279.459 533.175Z" stroke="white" stroke-width="0.77028" stroke-linecap="round" stroke-linejoin="round"/>
<path fill-rule="evenodd" clip-rule="evenodd" d="M130.786 668.252C133.748 668.392 139.305 668.62 143.056 668.603C148.367 668.568 149.979 669.356 151.434 669.023C152.889 668.673 153.432 667.236 153.432 667.236C153.432 667.236 154.659 667.726 154.957 666.587C155.238 665.43 154.957 662.433 153.66 660.785C152.363 659.138 149.26 654.668 144.791 653.844C140.321 653.038 135.203 651.741 135.203 651.741L134.905 652.722L130.786 668.252Z" fill="white" stroke="#272626" stroke-width="0.876403" stroke-linecap="round" stroke-linejoin="round"/>
<path d="M140.286 664.712C140.286 664.712 145.317 664.852 148.525 665.553C151.732 666.237 153.134 667.183 153.134 667.183" stroke="#272626" stroke-width="0.876403" stroke-linecap="round" stroke-linejoin="round"/>
<path d="M141.793 660.382C141.793 660.382 150.242 662.345 152.275 663.432C154.291 664.501 154.449 665.062 154.747 665.045" stroke="#272626" stroke-width="0.876403" stroke-linecap="round" stroke-linejoin="round"/>
<path d="M143.161 657.07C143.161 657.07 148.226 658.314 150.873 659.471C153.537 660.628 154.063 661.399 154.063 661.399" stroke="#272626" stroke-width="0.876403" stroke-linecap="round" stroke-linejoin="round"/>
<path fill-rule="evenodd" clip-rule="evenodd" d="M134.887 532.445C134.887 532.445 133.643 550.552 132.101 557.388C130.541 564.206 127.193 568.693 124.301 570.043C121.408 571.41 117.552 570.937 117.552 570.937L117.692 575.845L120.094 576.581C118.586 582.856 113.906 585.012 107.596 584.153C100.69 583.207 97.6754 579.508 96.3608 576.599L98.026 576.16C98.4467 573.075 98.6745 560.771 98.7271 556.652C96.8165 555.022 92.6098 551.025 92.5923 547.292C92.5923 542.436 96.7289 542.314 96.7289 542.314C96.7289 542.314 93.2584 522.805 113.819 522.174C134.379 521.56 134.887 532.445 134.887 532.445Z" fill="white"/>
<path fill-rule="evenodd" clip-rule="evenodd" d="M103.53 543.873C103.372 544.82 103.249 545.661 103.126 546.274C102.601 548.728 101.444 547.624 101.023 545.889C100.585 544.153 99.0599 542.699 96.7287 542.313C96.7287 542.313 92.5921 542.436 92.5921 547.291C92.6096 552.129 98.7269 556.651 98.7269 556.651C98.7269 556.651 98.5691 560.314 98.5867 564.276C94.5552 561.051 90.068 554.039 87.9471 542.944C85.8087 531.831 87.9471 527.064 93.0829 521.244C98.2186 515.425 103.793 515.004 112.399 515.653C121.023 516.301 131.312 517.09 131.312 517.09C140.724 518.177 145.229 516.494 146.105 519.474C146.964 522.454 142.196 524.014 142.196 524.014C142.196 524.014 147.665 525.521 147.507 528.501C147.367 531.498 139.445 531.323 139.445 531.323C139.445 531.323 143.266 534.601 141.758 536.126C140.268 537.668 134.572 536.651 134.572 536.651C134.572 536.651 132.258 536.003 128.121 534.916C126.561 534.513 124.703 533.829 122.688 533.163C122.828 533.742 122.74 534.39 122.092 534.986C120.286 536.599 112.083 532.48 112.083 532.48C112.083 532.48 110.05 536.353 105.703 534.601C104.318 536.844 103.74 540.069 103.53 543.873Z" fill="#272626" stroke="#272626" stroke-width="0.350561" stroke-linecap="round" stroke-linejoin="round"/>
<path d="M114.778 549.571C114.025 549.546 113.443 548.661 113.48 547.595C113.516 546.53 114.156 545.687 114.91 545.713C115.663 545.738 116.245 546.623 116.208 547.688C116.172 548.754 115.532 549.597 114.778 549.571Z" fill="#272626"/>
<path d="M129.038 548.225C128.284 548.199 127.703 547.314 127.739 546.249C127.775 545.183 128.416 544.34 129.169 544.366C129.923 544.392 130.504 545.276 130.468 546.342C130.432 547.407 129.791 548.25 129.038 548.225Z" fill="#272626"/>
<path d="M123.319 546.433C123.319 546.433 124.634 554.198 123.424 555.565C122.232 556.932 120.129 555.985 120.129 555.985" stroke="#272626" stroke-width="0.876403" stroke-linecap="round" stroke-linejoin="round"/>
<path d="M95.3442 545.223C98.4292 546.485 100.252 550.095 99.8665 553.303" stroke="#272626" stroke-width="0.876403" stroke-linecap="round" stroke-linejoin="round"/>
<path d="M96.115 549.604L98.7968 548.465" stroke="#272626" stroke-width="0.876403" stroke-linecap="round" stroke-linejoin="round"/>
<path d="M116.466 542.033C116.466 542.033 115.554 541.805 113.977 541.945C112.417 542.085 111.575 542.594 111.575 542.594" stroke="#272626" stroke-width="0.876403" stroke-linecap="round" stroke-linejoin="round"/>
<path d="M131.347 541.63C129.787 540.929 127.982 541.104 126.404 541.647" stroke="#272626" stroke-width="0.876403" stroke-linecap="round" stroke-linejoin="round"/>
<path d="M105.72 563.891C105.72 563.891 107.175 566.748 110.523 568.606C113.871 570.481 117.552 570.937 117.552 570.937" stroke="#272626" stroke-width="0.876403" stroke-linecap="round" stroke-linejoin="round"/>
<path d="M135.781 528.413C133.555 526.608 130.12 524.592 125.335 523.242" stroke="white" stroke-width="0.876403" stroke-linecap="round" stroke-linejoin="round"/>
<path d="M135.904 521.962C133.222 521.068 131.504 520.543 128.156 520.087" stroke="white" stroke-width="0.876403" stroke-linecap="round" stroke-linejoin="round"/>
<path d="M126.562 528.817C125.265 527.731 123.512 526.574 121.286 525.54" stroke="white" stroke-width="0.876403" stroke-linecap="round" stroke-linejoin="round"/>
<path d="M97.9205 540.298C97.7101 539.054 97.5524 537.634 97.5173 536.179C97.4998 535.496 97.4998 534.794 97.5524 534.111" stroke="white" stroke-width="0.876403" stroke-linecap="round" stroke-linejoin="round"/>
<path d="M94.6782 538.527C94.4153 536.687 94.24 534.443 94.4328 532.34" stroke="white" stroke-width="0.876403" stroke-linecap="round" stroke-linejoin="round"/>
<path d="M92.3117 540.579C91.891 538.756 91.5229 536.547 91.558 534.426" stroke="white" stroke-width="0.876403" stroke-linecap="round" stroke-linejoin="round"/>
<path d="M98.7271 556.651C96.8165 555.02 92.6098 551.024 92.5923 547.291C92.5923 542.435 96.7289 542.313 96.7289 542.313M134.887 532.444C134.887 532.444 133.643 550.551 132.101 557.387C130.541 564.205 127.193 568.692 124.301 570.042C121.408 571.409 117.552 570.936 117.552 570.936L117.692 575.844" stroke="#272626" stroke-width="0.876403" stroke-linecap="round" stroke-linejoin="round"/>
<path fill-rule="evenodd" clip-rule="evenodd" d="M115.921 562.261C115.466 564.469 124.037 564.276 124.265 562.296C124.633 558.808 116.324 560.332 115.921 562.261Z" fill="#272626"/>
<path fill-rule="evenodd" clip-rule="evenodd" d="M160.864 567.29L147.683 611.864C162.231 605.133 173.765 598.788 190.083 598.63L192.064 589.481C194.851 587.588 196.779 586.974 196.779 586.974L208.681 532.269C208.681 532.269 201.529 538.544 198.69 545.818C195.833 553.11 197.235 560.962 197.235 560.962C197.235 560.962 179.689 558.614 160.864 567.29Z" fill="#272626" stroke="#272626" stroke-width="0.876403" stroke-linecap="round" stroke-linejoin="round"/>
<path fill-rule="evenodd" clip-rule="evenodd" d="M198.199 590.096C198.199 590.096 197.112 586.836 195.254 585.609C193.379 584.364 189.382 586.52 186.893 587.677C184.387 588.852 184.755 590.236 185.386 591.13C186.017 592.007 192.292 589.693 192.292 589.693L193.361 591.533C193.361 591.533 189.19 594.776 186.841 598.685C184.51 602.611 188.927 601.384 188.927 601.384C188.927 601.384 188.646 604.101 190.259 604.679C191.871 605.24 193.94 603.189 193.94 603.189C193.94 603.189 194.781 607.344 196.884 605.749C199.706 603.628 203.913 600.911 204.106 599.035C204.281 597.177 202.826 596.073 202.826 596.073C202.826 596.073 202.932 594.285 202.318 593.567C201.722 592.83 200.355 592.743 200.355 592.743C200.355 592.743 199.706 590.534 198.199 590.096Z" fill="white" stroke="#272626" stroke-width="0.876403" stroke-linecap="round" stroke-linejoin="round"/>
<path d="M93.4331 577.281C100.672 592.162 121.11 590.217 122.828 576.825" stroke="#74A99A" stroke-width="0.876403" stroke-linecap="round" stroke-linejoin="round"/>
<path d="M89.139 607.518L83.9683 643.24" stroke="#272626" stroke-width="0.876403" stroke-linecap="round" stroke-linejoin="round"/>
<path d="M139.287 606.255V641.574" stroke="#272626" stroke-width="0.876403" stroke-linecap="round" stroke-linejoin="round"/>
<path fill-rule="evenodd" clip-rule="evenodd" d="M324.208 636.438C342.823 648.2 350.938 662.012 358.02 673.16C365.118 684.29 366.38 687.463 366.38 687.463L350.798 700.504C350.798 700.504 355.355 755.209 355.11 767.864C354.917 777.592 327.871 779.993 305.453 777.487L248.171 744.552C247.698 728.391 245.191 694.299 245.191 694.299C245.191 694.299 238.864 691.757 233.798 687.34C228.733 682.905 224.684 675.175 224.684 675.175C224.684 675.175 235.13 642.31 245.507 634.335C259.196 623.818 275.375 621.084 291.22 623.608C302.736 625.431 314.094 630.023 324.208 636.438Z" fill="#ABD1C6"/>
<path fill-rule="evenodd" clip-rule="evenodd" d="M80.7954 687.376L80.7078 693.318L89.1212 716.876L89.4192 712.441L80.7954 687.376Z" fill="white"/>
<path fill-rule="evenodd" clip-rule="evenodd" d="M17.9316 617.2L40.2273 661.967C40.2273 661.967 46.257 664.544 53.9869 660.407C61.6992 656.253 62.7684 651.958 62.7684 651.958L50.9896 605.614C50.9896 605.614 34.7761 619.146 17.9316 617.2Z" fill="white" stroke="#272626" stroke-width="0.876403" stroke-linecap="round" stroke-linejoin="round"/>
<path fill-rule="evenodd" clip-rule="evenodd" d="M22.9446 632.116L31.2529 648.75C31.2529 648.75 37.7733 650.205 47.8344 646.069C57.878 641.914 61.1733 637.322 61.1733 637.322L56.318 619.286C56.318 619.286 40.4902 631.748 22.9446 632.116Z" fill="#E16961"/>
<path fill-rule="evenodd" clip-rule="evenodd" d="M24.4703 604.667L20.0708 606.455L17.4416 612.624C17.4416 612.624 16.793 615.148 21.0173 616.796C25.2415 618.444 42.7345 611.099 42.7345 611.099L49.9561 605.596L49.7633 600.618L42.7521 597.55L24.4703 604.667Z" fill="white" stroke="#272626" stroke-width="0.876403" stroke-linecap="round" stroke-linejoin="round"/>
<path fill-rule="evenodd" clip-rule="evenodd" d="M17.4406 612.624C17.4406 612.624 13.041 614.674 16.0559 618.303C19.0707 621.931 31.3053 619.425 41.8572 614.061C52.4091 608.697 54.4423 604.754 53.303 602.545C52.1812 600.337 49.7623 600.617 49.7623 600.617C49.7974 607.541 20.7709 620.196 17.4406 612.624Z" fill="white" stroke="#272626" stroke-width="0.876403" stroke-linecap="round" stroke-linejoin="round"/>
<path fill-rule="evenodd" clip-rule="evenodd" d="M30.5172 599.724C36.7923 597.271 42.261 596.289 42.7518 597.551C43.2426 598.795 40.8412 602.073 32.603 605.088C24.3649 608.103 20.5613 607.7 20.0705 606.455C19.5797 605.193 24.2597 602.196 30.5172 599.724Z" fill="white" stroke="#272626" stroke-width="0.876403" stroke-linecap="round" stroke-linejoin="round"/>
<path d="M223.667 588.674C227.313 589.112 234.219 589.393 241.493 586.711C252.115 582.785 252.378 582.276 252.378 582.276C252.378 582.276 252.693 585.502 256.041 584.993C259.406 584.485 261.054 582.907 261.054 582.907C261.054 582.907 263.14 588.481 265.664 591.005C268.206 593.547 269.906 599.314 271.624 599.822C273.341 600.313 272.886 600.821 273.709 597.158C274.533 593.477 277.39 591.917 280.212 591.934C280.212 591.934 278.722 574.038 267.89 571.269C264.051 570.27 259.845 570.112 256.006 570.322C247.575 571.041 236.322 572.969 230.327 578.017C225.63 581.961 223.772 585.098 223.667 588.674ZM223.667 588.674C223.667 588.674 212.554 585.449 221.669 574.038C230.783 562.645 239.775 565.818 248.574 563.153C257.373 560.489 277.005 560.051 281.054 564.994C285.103 569.937 291.57 592.092 288.521 606.272C286.575 615.422 286.084 620.295 284.787 622.416L281.667 611.881C281.667 611.881 287.294 606.185 285.401 598.648" stroke="#CCCCCC" stroke-width="0.350561" stroke-linecap="round" stroke-linejoin="round"/>
<path fill-rule="evenodd" clip-rule="evenodd" d="M256.006 570.324C247.575 571.042 236.322 572.97 230.328 578.018C219.934 586.747 223.422 591.445 229.118 605.993C230.223 608.833 232.221 613.022 234.482 617.264C241.44 629.849 247.821 634.985 252.203 637.035C255.603 638.21 258.267 638.315 258.267 638.315L258.25 640.12L258.232 640.138V640.155C258.232 640.927 258.004 660.646 275.901 657.28C278.81 656.737 281.036 655.51 282.737 653.827L282.772 653.81C292.132 645.852 288.118 629.148 288.118 629.148L284.787 622.417L281.667 611.883C281.667 611.883 287.294 606.186 285.401 598.649C283.508 591.112 280.213 591.936 280.213 591.936C280.213 591.936 278.723 574.039 267.89 571.27C264.052 570.271 259.845 570.113 256.006 570.324Z" fill="white"/>
<path fill-rule="evenodd" clip-rule="evenodd" d="M251.256 582.873C251.256 582.873 250.274 586.028 253.99 586.344C257.689 586.659 260.914 584.416 260.914 584.416C260.914 584.416 262.088 591.059 266.558 592.706C271.01 594.354 271.326 600.629 272.377 601.102C273.429 601.576 273.254 597.106 275.445 594.634C277.636 592.181 280.212 591.935 280.212 591.935C280.212 591.935 283.508 591.111 285.401 598.648C287.294 606.185 281.667 611.882 281.667 611.882L283.928 619.507C285.225 617.246 287.802 612.022 288.556 605.256C289.292 598.561 288.678 590.901 287.872 584.258C289.099 584.608 290.414 584.521 290.063 582.277C289.678 579.806 287.907 577.194 286.61 575.564C286.452 574.933 286.242 574.319 285.997 573.724C287.241 573.215 289.169 571.673 285.068 567.15C282.789 564.644 280.282 563.364 278.109 562.751C275.515 560.595 272.202 558.755 267.995 557.755C252.921 554.215 242.036 558.684 240.231 560.069C238.425 561.471 240.248 563.049 240.248 563.049C240.248 563.049 229.749 564.784 226.016 568.009C224.473 569.342 224.403 570.656 224.859 571.743C224.859 571.743 217.707 573.355 217.129 584.118C216.568 594.88 233.483 588.517 233.483 588.517C233.483 588.517 233.973 594.126 239.477 591.707C244.981 589.306 251.256 582.873 251.256 582.873Z" fill="#272525"/>
<path fill-rule="evenodd" clip-rule="evenodd" d="M235.779 606.08C236.708 605.8 237.725 606.396 238.023 607.412C238.338 608.429 237.83 609.498 236.884 609.779C235.955 610.059 234.938 609.463 234.64 608.447C234.324 607.412 234.833 606.361 235.779 606.08ZM255.884 604.625C256.813 604.345 257.83 604.941 258.128 605.958C258.443 606.974 257.935 608.026 256.988 608.324C256.059 608.604 255.043 608.008 254.745 606.974C254.429 605.958 254.937 604.906 255.884 604.625Z" fill="#272626"/>
<path d="M245.191 608.535C245.279 611.76 245.665 618.824 247.067 619.823C248.89 621.102 251.519 619.945 251.519 619.945" stroke="#272626" stroke-width="0.876403" stroke-linecap="round" stroke-linejoin="round"/>
<path d="M276.391 624.924C273.516 631.9 267.136 638.648 258.267 638.315" stroke="#272626" stroke-width="0.876403" stroke-linecap="round" stroke-linejoin="round"/>
<path d="M263.982 641.961L262.299 637.964" stroke="#272626" stroke-width="0.876403" stroke-linecap="round" stroke-linejoin="round"/>
<path d="M280.353 595.091C276.199 596.125 274.849 606.204 281.124 608.149" stroke="#272626" stroke-width="0.876403" stroke-linecap="round" stroke-linejoin="round"/>
<path d="M282.263 602.436L276.83 601.261" stroke="#272626" stroke-width="0.876403" stroke-linecap="round" stroke-linejoin="round"/>
<path fill-rule="evenodd" clip-rule="evenodd" d="M252.36 625.379L263.368 621.453C263.123 628.394 254.008 629.393 252.36 625.379Z" fill="#272626" stroke="#272626" stroke-width="0.876403" stroke-linecap="round" stroke-linejoin="round"/>
<path d="M195.202 582.102L197.48 564.889" stroke="white" stroke-width="0.876403" stroke-linecap="round" stroke-linejoin="round"/>
<path d="M202.826 596.071C200.583 597.105 199.023 598.21 196.919 599.927C196.411 600.348 195.99 600.699 195.675 601.014" stroke="#272626" stroke-width="0.876403" stroke-linecap="round" stroke-linejoin="round"/>
<path d="M200.355 592.742C198.041 593.46 193.642 596.615 190.82 599.174" stroke="#272626" stroke-width="0.876403" stroke-linecap="round" stroke-linejoin="round"/>
<path d="M195.955 590.148L193.361 591.533" stroke="#272626" stroke-width="0.876403" stroke-linecap="round" stroke-linejoin="round"/>
<path d="M173.397 610.323L191.486 620.086" stroke="#74A99A" stroke-width="0.876403" stroke-linecap="round" stroke-linejoin="round"/>
<path d="M179.83 608.097L177.043 612.374" stroke="#74A99A" stroke-width="0.876403" stroke-linecap="round" stroke-linejoin="round"/>
<path d="M182.722 609.708L180.373 614.072" stroke="#74A99A" stroke-width="0.876403" stroke-linecap="round" stroke-linejoin="round"/>
<path d="M186.227 611.637L183.896 615.984" stroke="#74A99A" stroke-width="0.876403" stroke-linecap="round" stroke-linejoin="round"/>
<path d="M189.207 613.284L186.875 617.578" stroke="#74A99A" stroke-width="0.876403" stroke-linecap="round" stroke-linejoin="round"/>
<path d="M191.976 614.81L189.68 619.104" stroke="#74A99A" stroke-width="0.876403" stroke-linecap="round" stroke-linejoin="round"/>
<path d="M124.335 670.303C124.335 670.303 127.42 659.839 128.665 656.193C129.892 652.547 130.628 650.216 130.628 650.216" stroke="#74A99A" stroke-width="0.876403" stroke-linecap="round" stroke-linejoin="round"/>
<path d="M134.309 654.966C134.309 654.966 129.945 653.757 129.734 653.687" stroke="#74A99A" stroke-width="0.876403" stroke-linecap="round" stroke-linejoin="round"/>
<path d="M133.573 657.77L128.56 656.491" stroke="#74A99A" stroke-width="0.876403" stroke-linecap="round" stroke-linejoin="round"/>
<path d="M132.854 660.488L127.631 659.418" stroke="#74A99A" stroke-width="0.876403" stroke-linecap="round" stroke-linejoin="round"/>
<path d="M131.89 664.081L126.544 662.924" stroke="#74A99A" stroke-width="0.876403" stroke-linecap="round" stroke-linejoin="round"/>
<path d="M131.049 667.271L125.492 666.395" stroke="#74A99A" stroke-width="0.876403" stroke-linecap="round" stroke-linejoin="round"/>
<path d="M72.4172 642.661C72.4172 642.661 94.45 643.362 110.155 645.956C125.86 648.551 135.203 651.741 135.203 651.741L130.312 670.022L116.956 670.566" stroke="#272626" stroke-width="0.876403" stroke-linecap="round" stroke-linejoin="round"/>
<path d="M150.768 634.597L157.359 627.288" stroke="#272626" stroke-width="0.876403" stroke-linecap="round" stroke-linejoin="round"/>
<path d="M242.197 613.965C244.42 610.875 243.495 605.889 240.13 602.829C236.766 599.769 232.236 599.794 230.013 602.885C227.79 605.975 228.715 610.961 232.08 614.021C235.444 617.081 239.974 617.056 242.197 613.965Z" stroke="#272626" stroke-width="1.51094" stroke-linecap="round" stroke-linejoin="round"/>
<path d="M275.006 595.212L262.631 604.397" stroke="#272626" stroke-width="0.876403" stroke-linecap="round" stroke-linejoin="round"/>
<path d="M262.186 612.001C264.409 608.911 263.483 603.925 260.119 600.865C256.754 597.805 252.225 597.83 250.002 600.92C247.778 604.011 248.704 608.997 252.068 612.056C255.433 615.116 259.963 615.092 262.186 612.001Z" stroke="#272626" stroke-width="1.51094" stroke-linecap="round" stroke-linejoin="round"/>
<path d="M242.895 607.009C243.877 605.081 247.4 605.291 248.942 606.571" stroke="#272626" stroke-width="0.876403" stroke-linecap="round" stroke-linejoin="round"/>
<path fill-rule="evenodd" clip-rule="evenodd" d="M161.268 705.517L156.272 699.136L160.444 696.595C160.444 696.595 175.763 705.008 183.563 709.32C191.346 713.632 200.022 722.484 200.022 722.484C200.022 722.484 223.072 718.627 235.99 717.488C248.89 716.349 260.617 716.349 260.617 716.349L261.756 721.029L214.01 772.702L161.268 705.517Z" fill="white" stroke="#272626" stroke-width="0.876403" stroke-linecap="round" stroke-linejoin="round"/>
<path fill-rule="evenodd" clip-rule="evenodd" d="M156.272 699.137C156.272 699.137 166.964 705.395 175.08 709.584C183.178 713.756 198.567 727.112 198.567 727.112C198.567 727.112 217.375 723.379 231.433 722.239C245.472 721.1 261.756 721.03 261.756 721.03L264.157 740.854L265.297 749.338L270.24 783.465C270.24 783.465 247.068 784.534 236.814 784.481C226.542 784.411 211.608 785.813 211.608 785.813L172.416 760.608L156.272 699.137Z" fill="#E16961" stroke="#272626" stroke-width="0.350561" stroke-linecap="round" stroke-linejoin="round"/>
<path fill-rule="evenodd" clip-rule="evenodd" d="M162.126 721.415C162.126 721.415 156.079 726.603 155.57 727.865C155.062 729.145 156.657 733.124 156.657 733.124C156.657 733.124 154.501 735.28 154.817 737.401C155.132 739.522 156.464 740.082 156.464 740.082C156.464 740.082 155.325 742.677 155.693 743.833C156.079 744.973 158.743 745.919 158.743 745.919C158.743 745.919 157.919 750.021 160.829 751.546C163.738 753.071 170.96 752.124 171.153 751.178C171.346 750.214 169.418 746.988 169.418 746.988C169.418 746.988 171.311 746.55 171.276 745.095C171.24 743.641 169.47 742.677 169.47 742.677C169.47 742.677 172.134 741.485 171.503 740.223C170.872 738.943 168.331 737.243 168.331 737.243C168.331 737.243 170.609 735.525 169.032 733.317C167.454 731.091 164.194 729.303 164.194 729.303L162.126 721.415Z" fill="white" stroke="#272626" stroke-width="0.876403" stroke-linecap="round" stroke-linejoin="round"/>
<path d="M156.657 733.124C159.164 734.789 164.037 736.752 167.034 737.331" stroke="#272626" stroke-width="0.876403" stroke-linecap="round" stroke-linejoin="round"/>
<path d="M156.465 740.082C159.97 742.115 164.458 742.308 168.331 742.799" stroke="#272626" stroke-width="0.876403" stroke-linecap="round" stroke-linejoin="round"/>
<path d="M158.743 745.919C161.25 747.023 165.351 747.076 168.051 747.181" stroke="#272626" stroke-width="0.876403" stroke-linecap="round" stroke-linejoin="round"/>
<path fill-rule="evenodd" clip-rule="evenodd" d="M206.069 729.793L204.176 733.351L214.045 778.609L217.41 781.518C217.41 781.518 231.906 780.379 240.389 780.519C248.873 780.642 261.598 780.011 261.598 780.011L264.438 776.523L257.724 728.724L251.853 724.728C251.853 724.728 223.352 725.814 206.069 729.793Z" fill="white"/>
<path d="M230.818 703.764C227.576 701.065 225.122 699.102 221.108 697.629" stroke="#272626" stroke-width="0.876403" stroke-linecap="round" stroke-linejoin="round"/>
<path fill-rule="evenodd" clip-rule="evenodd" d="M330.045 713.036C336.075 710.127 344.593 705.692 350.798 700.504L362.717 690.53C362.717 690.53 378.019 728.093 360.561 743.43C343.086 758.749 291.816 769.652 291.816 769.652C291.816 769.652 280.405 774.823 267.855 774.753C255.323 774.7 253.114 769.757 253.114 769.757C253.114 769.757 247.891 768.425 246.874 766.497C245.858 764.569 249.311 763.973 249.311 763.973C249.311 763.973 245.858 763.149 244.35 761.046C242.825 758.96 247.698 758.206 247.698 758.206C247.698 758.206 244.596 756.997 245.612 754.595C246.629 752.194 253.517 752.194 257.882 751.247C262.264 750.283 265.296 749.337 265.296 749.337L264.157 740.853C264.157 740.853 271.764 741.292 275.743 743.132C279.739 744.972 285.12 747.759 285.12 747.759C285.12 747.759 302.21 740.03 315.006 733.702C327.784 727.374 335.706 723.132 335.706 723.132L330.045 713.036Z" fill="white"/>
<path d="M362.717 690.53C362.717 690.53 378.019 728.093 360.561 743.43C343.086 758.749 291.816 769.652 291.816 769.652C291.816 769.652 280.405 774.823 267.855 774.753C255.323 774.7 253.114 769.757 253.114 769.757C253.114 769.757 247.891 768.425 246.874 766.497C245.858 764.569 249.311 763.973 249.311 763.973C249.311 763.973 245.858 763.149 244.35 761.046C242.825 758.96 247.698 758.206 247.698 758.206C247.698 758.206 244.596 756.997 245.612 754.595C246.629 752.194 253.517 752.194 257.882 751.247C262.264 750.283 265.296 749.337 265.296 749.337L264.157 740.853C264.157 740.853 271.764 741.292 275.743 743.132C279.739 744.972 285.12 747.759 285.12 747.759C285.12 747.759 302.21 740.03 315.006 733.702C327.784 727.374 335.706 723.132 335.706 723.132L330.045 713.036C333.217 711.494 337.109 709.548 340.965 707.27" stroke="#272626" stroke-width="0.876403" stroke-linecap="round" stroke-linejoin="round"/>
<path d="M210.38 782.482L199.04 732.142" stroke="white" stroke-width="0.876403" stroke-linecap="round" stroke-linejoin="round"/>
<path d="M342.42 724.184C340.106 723.553 338.073 723.343 335.707 723.132" stroke="#272626" stroke-width="0.876403" stroke-linecap="round" stroke-linejoin="round"/>
<path d="M267.347 756.506C267.347 756.506 264.122 756.997 257.759 757.593C254.236 757.926 251.852 758.048 250.432 758.101" stroke="#272626" stroke-width="0.876403" stroke-linecap="round" stroke-linejoin="round"/>
<path d="M267.855 762.379C267.855 762.379 263.14 763.518 258.074 763.729C255.199 763.851 252.991 763.886 251.606 763.886" stroke="#272626" stroke-width="0.876403" stroke-linecap="round" stroke-linejoin="round"/>
<path d="M268.907 769.39C268.907 769.39 266.032 769.968 261.44 769.968C258.898 769.968 256.918 769.845 255.656 769.758" stroke="#272626" stroke-width="0.876403" stroke-linecap="round" stroke-linejoin="round"/>
<path d="M290.607 623.503C296.847 638.332 293.499 660.908 273.377 662.047C262.124 662.678 252.694 653.791 253.851 637.543" stroke="#74A99A" stroke-width="0.876403" stroke-linecap="round" stroke-linejoin="round"/>
<path d="M271.606 677.49L271.887 662.065" stroke="#74A99A" stroke-width="0.876403" stroke-linecap="round" stroke-linejoin="round"/>
<path d="M226.243 670.601C226.243 670.601 230.765 679.383 236.076 683.432C241.405 687.481 245.156 689.268 245.156 689.268" stroke="#74A99A" stroke-width="0.876403" stroke-linecap="round" stroke-linejoin="round"/>
<path d="M362.384 680.205C362.384 680.205 350.605 692.299 343.331 697.242C336.057 702.168 325.067 707.216 325.067 707.216" stroke="#74A99A" stroke-width="0.876403" stroke-linecap="round" stroke-linejoin="round"/>
<path d="M246.296 659.77L246.085 707.008" stroke="#272626" stroke-width="0.876403" stroke-linecap="round" stroke-linejoin="round"/>
<path d="M309.747 679.137L327.083 710.933" stroke="#272626" stroke-width="0.876403" stroke-linecap="round" stroke-linejoin="round"/>
<path d="M276.655 671.162C277.652 671.162 278.46 670.354 278.46 669.357C278.46 668.36 277.652 667.551 276.655 667.551C275.658 667.551 274.849 668.36 274.849 669.357C274.849 670.354 275.658 671.162 276.655 671.162Z" fill="#272626"/>
<path d="M224.228 592.917C225.104 596.37 226.962 600.471 229.118 605.993C230.223 608.832 232.221 613.021 234.482 617.263C239.285 625.94 247.155 637.876 258.268 638.314M284.787 622.416L281.667 611.882C281.667 611.882 287.294 606.186 285.401 598.648C283.508 591.111 280.213 591.935 280.213 591.935" stroke="#272626" stroke-width="0.876403" stroke-linecap="round" stroke-linejoin="round"/>
<path d="M231.081 579.438C231.081 579.438 235.376 576.844 239.249 576.02C243.106 575.196 247.277 575.144 247.277 575.144" stroke="white" stroke-width="0.876403" stroke-linecap="round" stroke-linejoin="round"/>
<path d="M241.072 570.007C241.072 570.007 246.015 569.289 249.556 569.955C253.114 570.603 255.323 571.41 255.323 571.41" stroke="white" stroke-width="0.876403" stroke-linecap="round" stroke-linejoin="round"/>
<path d="M244.438 563.171C244.438 563.171 246.997 562.821 249.363 563.294C251.747 563.767 252.378 564.03 252.378 564.03" stroke="white" stroke-width="0.876403" stroke-linecap="round" stroke-linejoin="round"/>
<path d="M272.763 580.717C272.763 580.717 274.341 583.119 274.604 584.503C274.849 585.906 274.919 586.589 274.919 586.589" stroke="white" stroke-width="0.876403" stroke-linecap="round" stroke-linejoin="round"/>
<path d="M279.126 581.91C279.126 581.91 279.547 582.733 279.95 584.136C280.353 585.52 280.3 586.467 280.3 586.467" stroke="white" stroke-width="0.876403" stroke-linecap="round" stroke-linejoin="round"/>
<path d="M284.121 584.03C284.121 584.03 284.349 585.783 284.419 586.432C284.472 587.098 284.542 587.904 284.542 587.904" stroke="white" stroke-width="0.876403" stroke-linecap="round" stroke-linejoin="round"/>
<path d="M250.854 625.94L252.361 625.379" stroke="#272626" stroke-width="0.876403" stroke-linecap="round" stroke-linejoin="round"/>
<path fill-rule="evenodd" clip-rule="evenodd" d="M80.7954 687.376L89.4192 712.441L89.1212 716.875L148.016 712.371L148.173 708.129L136.517 683.817L80.7954 687.376Z" fill="#272626" stroke="#272626" stroke-width="0.876403" stroke-linecap="round" stroke-linejoin="round"/>
<path fill-rule="evenodd" clip-rule="evenodd" d="M87.1938 690.917L93.2761 707.761L101.69 707.06L95.1165 690.374L87.1938 690.917Z" fill="white"/>
<path d="M80.7078 693.317L89.1212 716.875" stroke="#272626" stroke-width="0.876403" stroke-linecap="round" stroke-linejoin="round"/>
<path d="M93.679 712.88L144.843 709.076" stroke="white" stroke-width="0.876403" stroke-linecap="round" stroke-linejoin="round"/>
<path d="M243.512 505.364L245.034 507.418" stroke="#ABD1C6" stroke-width="0.876403" stroke-linecap="round" stroke-linejoin="round"/>
<path fill-rule="evenodd" clip-rule="evenodd" d="M215.297 472.387L207.899 512.605L242.386 504.067L248.538 459.657L215.297 472.387Z" fill="#E16961"/>
<path fill-rule="evenodd" clip-rule="evenodd" d="M221.094 477.951L240.188 470.7L236.76 496.357L216.724 501.889L221.094 477.951Z" fill="white"/>
<path d="M209.104 514.285L245.034 507.417L250.911 465.001" stroke="#ABD1C6" stroke-width="0.876403" stroke-linecap="round" stroke-linejoin="round"/>
<path d="M39.9068 811.712L37.0073 704.431" stroke="#74A99A" stroke-width="0.876403" stroke-linecap="round" stroke-linejoin="round"/>
<path d="M99.0254 769.581C99.0254 769.581 107.632 779.344 116.115 786.426C124.599 793.524 131.82 801.622 131.82 801.622" stroke="white" stroke-width="1.3146" stroke-linecap="round" stroke-linejoin="round"/>
<path d="M136.763 791.879L148.787 803.78" stroke="white" stroke-width="1.3146" stroke-linecap="round" stroke-linejoin="round"/>
<path d="M202.09 643.73L229.451 635.615" stroke="white" stroke-width="1.3146" stroke-linecap="round" stroke-linejoin="round"/>
<path d="M186.648 655.246L210.329 648.165" stroke="white" stroke-width="1.3146" stroke-linecap="round" stroke-linejoin="round"/>
<path d="M57.6235 695.264C57.6235 695.264 47.7377 701.083 52.0496 710.461C56.344 719.82 61.9179 724.641 61.9179 724.641" stroke="white" stroke-width="1.3146" stroke-linecap="round" stroke-linejoin="round"/>
<path d="M73.3112 726.288L67.2465 719.96C64.8276 717.173 56.9049 707.427 61.2869 703.869" stroke="white" stroke-width="1.3146" stroke-linecap="round" stroke-linejoin="round"/>
<path d="M291.938 787.689L315.987 801.115" stroke="white" stroke-width="0.876403" stroke-linecap="round" stroke-linejoin="round"/>
<path d="M79.2537 793.718L98.5871 811.369" stroke="white" stroke-width="0.876403" stroke-linecap="round" stroke-linejoin="round"/>
<path d="M79.8669 804.341L86.7029 810.424" stroke="white" stroke-width="0.876403" stroke-linecap="round" stroke-linejoin="round"/>
<path d="M64.4602 796.331C69.7186 802.36 71.8395 805.112 77.1856 810.458" stroke="white" stroke-width="0.876403" stroke-linecap="round" stroke-linejoin="round"/>
</g>
</g>
<defs>
<linearGradient id="paint0_linear_601_35" x1="741.5" y1="671" x2="9.00002" y2="133.5" gradientUnits="userSpaceOnUse">
<stop stop-color="white"/>
<stop offset="1" stop-color="white" stop-opacity="0"/>
</linearGradient>
<clipPath id="clip0_601_35">
<rect width="375" height="812" fill="white"/>
</clipPath>
<clipPath id="clip1_601_35">
<rect width="576.55" height="434.231" fill="white" transform="translate(-107 398)"/>
</clipPath>
</defs>
</svg>
