<svg width="36" height="36" viewBox="0 0 36 36" fill="none" xmlns="http://www.w3.org/2000/svg">
<path opacity="0.2" d="M5.0625 15.6001V23.2671C5.06204 23.5098 5.14049 23.746 5.28603 23.9402C6.23337 25.2009 10.2301 29.8126 18 29.8126C25.7699 29.8126 29.7666 25.2009 30.714 23.9402C30.8595 23.746 30.938 23.5098 30.9375 23.2671V15.6001L18 22.5001L5.0625 15.6001Z" fill="#F9BC60"/>
<path d="M1.125 13.5L18 4.5L34.875 13.5L18 22.5L1.125 13.5Z" stroke="#F9BC60" stroke-width="2.25" stroke-linecap="round" stroke-linejoin="round"/>
<path d="M26.4375 33.75V18L18 13.5" stroke="#F9BC60" stroke-width="2.25" stroke-linecap="round" stroke-linejoin="round"/>
<path d="M30.9375 15.6001V23.2671C30.938 23.5098 30.8595 23.746 30.714 23.9402C29.7666 25.2009 25.7699 29.8126 18 29.8126C10.2301 29.8126 6.23337 25.2009 5.28603 23.9402C5.14049 23.746 5.06204 23.5098 5.0625 23.2671V15.6001" stroke="#F9BC60" stroke-width="2.25" stroke-linecap="round" stroke-linejoin="round"/>
</svg>
