<svg width="375" height="812" viewBox="0 0 375 812" fill="none" xmlns="http://www.w3.org/2000/svg">
<path fill-rule="evenodd" clip-rule="evenodd" d="M-150.355 537.172C-95.322 742.557 115.788 864.441 321.172 809.408C523.124 755.295 644.344 550.278 596.02 348.183C595.741 347.003 595.456 345.824 595.163 344.645C594.855 343.351 594.527 342.057 594.181 340.764C594.14 340.613 594.1 340.463 594.059 340.312C594.014 340.142 593.969 339.973 593.923 339.803C593.886 339.666 593.849 339.529 593.812 339.392C593.764 339.209 593.715 339.025 593.666 338.842C593.625 338.69 593.584 338.538 593.543 338.386C593.498 338.218 593.453 338.049 593.408 337.881C538.376 132.497 327.266 10.6127 121.882 65.6453C-83.503 120.678 -205.387 331.788 -150.355 537.172ZM583.365 319.337C585.471 325.804 587.417 332.363 589.198 339.009C591.607 348 593.674 357.003 595.405 366.002C592.501 393.517 573.058 417.703 544.735 425.292C508.006 435.133 470.253 413.337 460.411 376.608C450.57 339.879 472.367 302.126 509.096 292.284C537.854 284.578 567.241 296.269 583.365 319.337ZM582.556 316.881C565.975 294.882 537.134 283.955 508.892 291.523C471.742 301.477 449.696 339.662 459.65 376.812C469.604 413.961 507.789 436.008 544.939 426.053C572.739 418.604 592.081 395.346 595.885 368.543C596.106 369.733 596.32 370.922 596.529 372.112C594.813 416.571 564.537 456.643 519.306 468.763C463.687 483.666 406.519 450.66 391.616 395.041C376.713 339.423 409.719 282.254 465.338 267.351C511.31 255.033 558.341 275.447 581.688 314.307C581.98 315.163 582.269 316.021 582.556 316.881ZM465.029 266.198C509.153 254.375 554.243 272.365 578.911 307.82C548.17 254.143 484.143 225.655 421.58 242.419C347.072 262.383 302.856 338.968 322.82 413.475C342.785 487.983 419.369 532.199 493.877 512.235C556.26 495.519 597.408 439.11 597.43 377.462L597.399 377.273C593.633 420.171 563.622 458.125 519.615 469.916C463.36 484.99 405.536 451.606 390.463 395.35C375.389 339.095 408.774 281.272 465.029 266.198ZM573.703 296.6C534.587 230.021 454.56 194.876 376.349 215.832C282.427 240.999 226.69 337.538 251.856 431.46C277.022 525.381 373.562 581.119 467.483 555.952C542.494 535.853 593.149 470.229 597.686 396.772C590.088 451.288 550.804 498.637 494.291 513.779C418.93 533.972 341.468 489.25 321.276 413.889C301.083 338.528 345.805 261.067 421.166 240.874C480.263 225.039 540.653 249.124 573.703 296.6ZM375.827 213.885C448.966 194.288 523.675 223.196 565.799 280.89C517.082 203.277 421.827 162.904 328.687 187.861C214.302 218.511 146.421 336.084 177.07 450.469C207.719 564.854 325.293 632.735 439.678 602.085C529.107 578.123 590.11 501.028 597.825 413.865C587.091 481.123 538.045 539.132 468.005 557.9C373.008 583.354 275.363 526.979 249.909 431.982C224.455 336.985 280.83 239.34 375.827 213.885ZM550.897 256.182C498.438 193.25 412.388 162.892 328.051 185.49C212.357 216.49 143.698 335.41 174.699 451.104C205.699 566.799 324.619 635.457 440.313 604.457C524.649 581.859 583.992 512.543 597.957 431.814C586.912 531.076 516.54 618.148 414.248 645.557C280.974 681.267 143.985 602.177 108.274 468.903C72.5638 335.628 151.655 198.639 284.929 162.929C387.22 135.52 491.701 175.74 550.897 256.182ZM393.057 681.783C500.826 652.906 576.908 564.802 595.666 461.875C575.049 549.563 508.09 623.374 414.989 648.32C280.189 684.439 141.631 604.443 105.511 469.643C69.3917 334.843 149.388 196.285 284.188 160.165C377.289 135.219 472.182 165.661 533.881 231.292C466.173 151.534 356.232 113.275 248.464 142.151C99.4485 182.08 11.0163 335.249 50.9448 484.264C90.8733 633.279 244.042 721.711 393.057 681.783ZM596.074 475.672C575.361 591.321 490.037 690.419 369.041 722.839C202.186 767.548 30.6798 668.529 -14.0289 501.674C-58.7376 334.819 40.2816 163.313 207.137 118.604C328.132 86.1833 451.573 129.342 527.337 219.14C458.364 145.377 351.993 111.1 247.636 139.062C96.9144 179.448 7.46964 334.371 47.8553 485.092C88.241 635.813 243.164 725.258 393.885 684.872C498.242 656.91 573.223 574.039 596.074 475.672ZM344.061 764.142C472.585 729.704 564.851 627.493 592.712 506.262C563.442 610.119 481.758 696.345 369.968 726.299C201.202 771.519 27.7323 671.366 -17.4883 502.601C-62.7089 333.835 37.4441 160.365 206.21 115.145C324.223 83.5229 444.537 122.987 521.69 207.289C437.763 106.057 299.672 57.1399 164.337 93.4028C-20.8829 143.032 -130.8 333.415 -81.1709 518.634C-31.5415 703.854 158.841 813.771 344.061 764.142ZM592.387 523.594C561.535 656.013 460.554 767.549 320.044 805.198C116.985 859.608 -91.735 739.103 -146.145 536.044C-200.554 332.985 -80.0498 124.265 123.01 69.8553C263.519 32.2059 406.739 78.3076 499.668 177.56C413.884 93.8961 287.449 56.2991 163.308 89.5627C-24.0327 139.76 -135.209 332.323 -85.0111 519.663C-34.8134 707.004 157.749 818.18 345.09 767.982C469.231 734.718 559.929 638.941 592.387 523.594Z" fill="url(#paint0_linear_1115_179)" fill-opacity="0.08"/>
<g clip-path="url(#clip0_1115_179)">
<path fill-rule="evenodd" clip-rule="evenodd" d="M97.4351 167.852L48.7757 155.114L76.5637 200.018L97.4351 167.852ZM87.5998 171.212L76.6093 187.28L61.7424 163.946L87.5998 171.212Z" fill="#ABD1C6"/>
<path d="M71.1824 185.836L69.115 187.979" stroke="#74A99A" stroke-width="0.760066" stroke-linecap="round" stroke-linejoin="round"/>
<path d="M66.3027 180.288L65.0562 181.428" stroke="#74A99A" stroke-width="0.760066" stroke-linecap="round" stroke-linejoin="round"/>
<path d="M63.3538 173.173L61.2864 175.316" stroke="#74A99A" stroke-width="0.760066" stroke-linecap="round" stroke-linejoin="round"/>
<path d="M58.7173 168.02L57.4708 169.16" stroke="#74A99A" stroke-width="0.760066" stroke-linecap="round" stroke-linejoin="round"/>
<path d="M55.6011 160.647L53.5337 162.791" stroke="#74A99A" stroke-width="0.760066" stroke-linecap="round" stroke-linejoin="round"/>
<path fill-rule="evenodd" clip-rule="evenodd" d="M107.042 98.7629C107.042 98.7629 89.0286 93.8224 82.2184 105.907C75.4082 117.993 81.3367 130.944 98.1341 128.193C100.901 127.752 103.379 127.098 105.568 126.292L114.4 130.397L112.56 122.568C122.623 114.876 119.963 102.502 107.042 98.7629Z" fill="#E16162"/>
<path fill-rule="evenodd" clip-rule="evenodd" d="M88.2533 119.604L95.8844 103.065C95.8844 103.065 96.6141 101.18 97.9214 102.274C99.2287 103.369 109.125 118.251 109.125 118.251C109.125 118.251 110.675 120.257 107.483 120.866C104.291 121.474 89.1502 121.747 89.1502 121.747C89.1502 121.747 87.098 122.249 88.2533 119.604Z" fill="white"/>
<path fill-rule="evenodd" clip-rule="evenodd" d="M96.0216 107.321L99.0011 107.138L98.9707 114.496L96.9945 114.617L96.0216 107.321ZM98.241 118.585C97.8002 118.615 97.4202 118.494 97.1161 118.235C96.7969 117.962 96.6297 117.627 96.6145 117.217C96.5841 116.821 96.7057 116.472 96.9793 116.183C97.2529 115.894 97.6026 115.727 98.0586 115.697C98.4994 115.666 98.8795 115.788 99.1835 116.031C99.4875 116.289 99.6547 116.624 99.6852 117.034C99.7156 117.429 99.5939 117.794 99.3051 118.083C99.0315 118.387 98.6819 118.554 98.241 118.585Z" fill="#E16162"/>
<path fill-rule="evenodd" clip-rule="evenodd" d="M59.1126 239.238C54.3242 239.208 43.5768 238.448 39.0621 232.307C33.1944 224.296 39.2293 215.509 51.6943 215.175C80.6985 214.415 80.8353 236.669 64.8739 238.98L62.2441 244.726L59.1126 239.238Z" fill="white" stroke="#272626" stroke-width="0.760066" stroke-linecap="round" stroke-linejoin="round"/>
<path fill-rule="evenodd" clip-rule="evenodd" d="M63.7941 227.108C62.958 227.108 62.2891 227.807 62.2891 228.658C62.2891 229.51 62.958 230.209 63.7941 230.209C64.6301 230.209 65.3142 229.51 65.3142 228.658C65.3142 227.807 64.6301 227.108 63.7941 227.108ZM47.7719 224.721C46.9358 224.721 46.267 225.42 46.267 226.272C46.267 227.123 46.9358 227.822 47.7719 227.822C48.608 227.822 49.292 227.123 49.292 226.272C49.292 225.42 48.608 224.721 47.7719 224.721ZM55.9502 226.059C55.1141 226.059 54.4301 226.743 54.4301 227.609C54.4301 228.461 55.1141 229.145 55.9502 229.145C56.7863 229.145 57.4551 228.461 57.4551 227.609C57.4551 226.743 56.7863 226.059 55.9502 226.059Z" fill="#272626"/>
<path fill-rule="evenodd" clip-rule="evenodd" d="M252.808 184.848C246.94 176.837 252.975 168.051 265.44 167.716C284.67 167.214 291.206 176.822 288.774 184.027L292.042 189.956L285.262 188.846C283.545 190.168 281.31 191.141 278.604 191.521C270.365 191.871 258.143 192.114 252.808 184.848Z" fill="white" stroke="#272626" stroke-width="0.760066" stroke-linecap="round" stroke-linejoin="round"/>
<path fill-rule="evenodd" clip-rule="evenodd" d="M277.54 179.649C276.704 179.649 276.035 180.349 276.035 181.2C276.035 182.051 276.704 182.735 277.54 182.735C278.376 182.735 279.061 182.051 279.061 181.2C279.061 180.349 278.376 179.649 277.54 179.649ZM261.518 177.263C260.682 177.263 260.013 177.962 260.013 178.813C260.013 179.665 260.682 180.364 261.518 180.364C262.354 180.364 263.038 179.665 263.038 178.813C263.038 177.962 262.354 177.263 261.518 177.263ZM269.681 178.6C268.845 178.6 268.176 179.284 268.176 180.151C268.176 181.002 268.845 181.686 269.681 181.686C270.517 181.686 271.201 181.002 271.201 180.151C271.201 179.284 270.517 178.6 269.681 178.6Z" fill="#272626"/>
<path fill-rule="evenodd" clip-rule="evenodd" d="M266.398 109.221L269.134 140.293L243.155 135.626L240.692 104.387L266.398 109.221Z" fill="#E16162"/>
<path fill-rule="evenodd" clip-rule="evenodd" d="M264.331 111.577L265.106 119.938L243.915 116.123L243.246 107.61L264.331 111.577Z" fill="white"/>
<path d="M262.005 121.549L262.279 124.711L265.44 125.091" stroke="#272626" stroke-width="0.760066" stroke-linecap="round" stroke-linejoin="round"/>
<path d="M256.547 120.835L256.821 123.982L259.983 124.362" stroke="#272626" stroke-width="0.760066" stroke-linecap="round" stroke-linejoin="round"/>
<path d="M250.969 119.68L251.242 122.842L254.404 123.222" stroke="#272626" stroke-width="0.760066" stroke-linecap="round" stroke-linejoin="round"/>
<path d="M245.526 118.54L245.8 121.701L248.962 122.081" stroke="#272626" stroke-width="0.760066" stroke-linecap="round" stroke-linejoin="round"/>
<path d="M262.278 126.901L262.552 130.048L265.714 130.443" stroke="#272626" stroke-width="0.760066" stroke-linecap="round" stroke-linejoin="round"/>
<path d="M256.821 126.171L257.094 129.333L260.256 129.713" stroke="#272626" stroke-width="0.760066" stroke-linecap="round" stroke-linejoin="round"/>
<path d="M251.242 125.03L251.516 128.177L254.677 128.557" stroke="#272626" stroke-width="0.760066" stroke-linecap="round" stroke-linejoin="round"/>
<path d="M245.8 123.891L246.074 127.052L249.236 127.433" stroke="#272626" stroke-width="0.760066" stroke-linecap="round" stroke-linejoin="round"/>
<path d="M262.567 132.115L262.841 135.277L266.003 135.657" stroke="#272626" stroke-width="0.760066" stroke-linecap="round" stroke-linejoin="round"/>
<path d="M257.126 131.4L257.399 134.547L260.561 134.942" stroke="#272626" stroke-width="0.760066" stroke-linecap="round" stroke-linejoin="round"/>
<path d="M251.546 130.245L251.82 133.407L254.982 133.787" stroke="#272626" stroke-width="0.760066" stroke-linecap="round" stroke-linejoin="round"/>
<path d="M246.104 129.119L246.378 132.266L249.525 132.661" stroke="#272626" stroke-width="0.760066" stroke-linecap="round" stroke-linejoin="round"/>
<path fill-rule="evenodd" clip-rule="evenodd" d="M184.022 174.602L191.212 182.172C191.212 182.172 206.018 164.721 207.827 161.696C209.636 158.671 210.244 157.47 210.244 157.47C210.244 157.47 210.457 150.493 209.864 147.863C209.256 145.218 207.25 141.874 207.721 140.931C208.192 140.004 209.971 139.487 211.536 141.646C213.102 143.819 214.607 146.753 214.607 146.753C214.607 146.753 222.132 137.541 224.305 136.492C226.464 135.443 227.787 136.462 227.787 136.462C227.787 136.462 229.155 134.896 231.116 136.128C233.061 137.374 230.371 139.35 228.334 142.755C226.312 146.16 224.959 149.231 224.959 149.231C224.959 149.231 232.119 141.919 233.806 141.402C235.478 140.886 236.907 142.223 235.068 144.397C233.229 146.571 232.119 147.802 230.675 149.641C229.215 151.481 228.531 152.94 228.531 152.94C228.531 152.94 233.335 150.462 236.086 150.25C238.823 150.022 237.895 152.682 236.603 153.077C235.311 153.457 229.185 156.999 226.449 159.142C223.697 161.286 222.208 162.988 222.208 162.988L203.054 194.561C201.291 197.45 196.457 202.36 188.065 198.392C179.659 194.44 169.003 186.094 169.003 186.094L184.022 174.602Z" fill="white" stroke="#272626" stroke-width="0.760066" stroke-linecap="round" stroke-linejoin="round"/>
<path fill-rule="evenodd" clip-rule="evenodd" d="M204.878 347.107C204.878 347.107 206.581 363.889 209.043 371.687C211.491 379.485 214.592 388.257 205.197 387.177C195.788 386.113 191.197 375.427 189.16 368.692C187.138 361.958 186.165 357.58 186.165 357.58L187.351 344.538L204.878 347.107Z" fill="white" stroke="#272626" stroke-width="0.760066" stroke-linecap="round" stroke-linejoin="round"/>
<path fill-rule="evenodd" clip-rule="evenodd" d="M187.29 346.924C187.29 346.924 188.081 357.063 189.89 366.655C191.698 376.247 196.426 389.609 186.986 388.879C177.531 388.15 172.134 374.651 170.462 365.515C168.805 356.379 168.395 352.944 168.395 352.944L169.216 341.634L187.29 346.924Z" fill="white" stroke="#272626" stroke-width="0.760066" stroke-linecap="round" stroke-linejoin="round"/>
<path fill-rule="evenodd" clip-rule="evenodd" d="M122.867 224.386C121.879 224.173 120.45 235.362 121.332 245.911C122.213 256.461 130.224 265.019 138.692 271.495C147.144 277.971 165.264 284.462 165.264 284.462C165.841 304.33 167.513 324.609 167.787 344.309C169.535 352.564 184.949 355.042 188.385 347.927C188.385 347.927 193.264 351.606 199.527 351.712C205.79 351.834 207.386 348.976 207.386 348.976C209.211 333.729 222.512 271.374 212.023 258.407C200.014 243.601 180.009 234.085 166.312 228.384L122.867 224.386Z" fill="#ABD1C6"/>
<path d="M185.284 257.479C186.545 258.24 196.32 264.457 195.058 279.993C193.796 295.544 188.613 345.373 188.521 346.179" stroke="#272626" stroke-width="0.760066" stroke-linecap="round" stroke-linejoin="round"/>
<path fill-rule="evenodd" clip-rule="evenodd" d="M138.996 160.419L127.762 156.163C127.762 156.163 115.981 158.778 111.861 168.598C107.757 178.433 106.48 184.529 106.48 184.529L121.59 191.886C121.59 191.886 126.47 206.099 124.281 215.22C122.077 224.341 121.043 224.721 122.244 227.138C123.46 229.555 129.16 235.696 146.079 237.901C162.983 240.09 170.128 231.972 170.675 230.756C171.222 229.555 168.213 216.421 168.319 210.721C168.425 205.005 169.201 199.624 169.201 199.624C169.201 199.624 173.092 196.887 174.354 194.303C175.616 191.719 173.867 185.851 173.867 185.851L186.561 175.758C186.561 175.758 181.058 168.111 177.546 164.539C174.035 160.967 170.052 158.002 163.941 156.817C163.941 156.817 163.029 156.741 161.448 156.634C153.832 156.665 138.996 160.419 138.996 160.419Z" fill="#272626" stroke="#272626" stroke-width="0.304026" stroke-linecap="round" stroke-linejoin="round"/>
<path d="M187.944 185.942L191.212 182.172" stroke="#272626" stroke-width="0.760066" stroke-linecap="round" stroke-linejoin="round"/>
<path d="M220.064 154.506C220.064 154.506 217.267 151.861 216.249 150.083C215.23 148.289 214.607 146.753 214.607 146.753" stroke="#272626" stroke-width="0.760066" stroke-linecap="round" stroke-linejoin="round"/>
<path d="M220.581 146.875C222.254 144.108 225.066 139.639 227.787 136.462" stroke="#272626" stroke-width="0.760066" stroke-linecap="round" stroke-linejoin="round"/>
<path d="M169.687 170.118C169.687 170.118 170.158 174.922 170.918 177.886C171.374 179.604 172.195 181.732 172.819 183.237" stroke="white" stroke-width="0.760066" stroke-linecap="round" stroke-linejoin="round"/>
<path fill-rule="evenodd" clip-rule="evenodd" d="M220.125 210.401L221.949 212.134L209.682 252.281L152.844 260.49L124.843 238.417L158.788 234.967L164.017 217.835L220.125 210.401Z" fill="#E16162"/>
<path d="M220.095 212.377L165.735 219.628L153.543 258.605" stroke="white" stroke-width="0.760066" stroke-linecap="round" stroke-linejoin="round"/>
<path fill-rule="evenodd" clip-rule="evenodd" d="M171.025 127.554C170.265 131.613 169.474 135.094 168.562 137.967C167.833 140.034 166.662 142.543 164.929 144.701C161.22 149.292 155.656 149.034 155.656 149.034L155.322 154.521L163.941 156.817C163.941 156.817 169.277 176.046 152.251 175.165C135.226 174.283 127.762 156.163 127.762 156.163L140.394 153.427C140.394 153.427 141.656 144.519 141.762 141.509C141.869 138.484 141.656 136.401 141.656 136.401C141.656 136.401 138.357 135.991 137.476 131.917C136.609 127.858 137.992 125.7 138.6 125C130.513 97.9116 177.455 93.1384 171.025 127.554Z" fill="white"/>
<path fill-rule="evenodd" clip-rule="evenodd" d="M155.656 149.033C155.656 149.033 161.22 149.292 164.929 144.701C166.662 142.542 167.832 140.034 168.562 137.967C169.474 135.094 170.265 131.613 171.025 127.554C171.374 125.714 171.557 123.997 171.602 122.385C171.435 121.99 168.319 114.8 161.448 111.988C161.448 111.988 161.569 117.977 156.188 121.169C150.807 124.346 146.14 124.134 146.14 124.134C146.14 124.134 146.216 126.931 145.882 128.709C145.562 130.503 144.574 131.4 144.407 131.263C144.24 131.126 144.924 126.566 142.264 125.091C139.604 123.601 138.6 125 138.6 125C137.992 125.699 136.609 127.858 137.475 131.917C138.357 135.991 141.656 136.401 141.656 136.401C141.656 136.401 141.869 138.484 141.762 141.509C141.671 143.986 140.804 150.447 140.5 152.666C131.212 150.113 126.424 144.929 126.424 144.929C126.652 131.613 131.851 92.1347 152.525 101.164C152.525 101.164 159.335 96.0111 166.373 101.985C173.396 107.975 176.315 119.071 177.622 131.415C178.945 143.774 181.529 151.237 181.529 151.237C181.529 151.237 179.461 152.18 177.759 150.204C176.056 148.228 173.594 142.451 173.594 142.451C173.594 142.451 174.521 151.846 172.879 153.062C171.754 153.882 163.85 154.703 155.322 154.475L155.656 149.033Z" fill="#E16162"/>
<path d="M141.96 133.574C141.96 133.574 142.537 131.734 141.808 129.044C141.063 126.353 139.391 126.839 139.391 126.839" stroke="#272626" stroke-width="0.760066" stroke-linecap="round" stroke-linejoin="round"/>
<path d="M139.619 131.172L141.899 129.424" stroke="#272626" stroke-width="0.760066" stroke-linecap="round" stroke-linejoin="round"/>
<path fill-rule="evenodd" clip-rule="evenodd" d="M167.574 128.329C166.936 128.101 166.221 128.512 165.978 129.226C165.719 129.956 166.023 130.716 166.662 130.944C167.3 131.157 168.015 130.746 168.258 130.032C168.516 129.302 168.212 128.542 167.574 128.329ZM156.31 128.861C155.671 128.633 154.957 129.044 154.698 129.773C154.455 130.488 154.759 131.248 155.383 131.476C156.021 131.689 156.735 131.293 156.994 130.564C157.237 129.849 156.933 129.074 156.31 128.861Z" fill="#272626"/>
<path d="M162.254 128.588C162.254 128.588 162.497 132.677 162.74 134.471C162.983 136.249 163.318 137.435 163.318 137.435C162.33 137.693 161.098 137.693 160.05 137.374" stroke="#272626" stroke-width="0.760066" stroke-linecap="round" stroke-linejoin="round"/>
<path d="M166.556 133.953C164.107 132.786 163.142 129.663 164.4 126.977C165.658 124.291 168.664 123.059 171.113 124.226C173.562 125.392 174.527 128.515 173.268 131.202C172.01 133.888 169.005 135.12 166.556 133.953Z" stroke="#272626" stroke-width="1.03004" stroke-linecap="round" stroke-linejoin="round"/>
<path d="M152.928 133.939C150.479 132.772 149.514 129.649 150.772 126.963C152.03 124.277 155.036 123.045 157.485 124.211C159.934 125.378 160.899 128.501 159.641 131.187C158.382 133.874 155.377 135.106 152.928 133.939Z" stroke="#272626" stroke-width="1.03004" stroke-linecap="round" stroke-linejoin="round"/>
<path d="M143.556 126.399L150.26 128.725" stroke="#272626" stroke-width="0.760066" stroke-linecap="round" stroke-linejoin="round"/>
<path d="M163.85 129.105L160.171 129.196" stroke="#272626" stroke-width="0.760066" stroke-linecap="round" stroke-linejoin="round"/>
<path d="M145.304 142.406C147.128 145.872 150.381 148 154.197 148.821" stroke="#272626" stroke-width="0.760066" stroke-linecap="round" stroke-linejoin="round"/>
<path d="M156.933 143.699C156.156 143.44 155.751 142.47 156.028 141.534C156.305 140.597 157.16 140.048 157.937 140.307C158.714 140.566 159.119 141.536 158.842 142.472C158.564 143.409 157.71 143.958 156.933 143.699Z" fill="#272626" stroke="#272626" stroke-width="0.937452" stroke-linecap="round" stroke-linejoin="round"/>
<path d="M160.231 140.384L157.754 140.262" stroke="#272626" stroke-width="0.760066" stroke-linecap="round" stroke-linejoin="round"/>
<path d="M127.747 182.233L124.615 192.007" stroke="white" stroke-width="0.760066" stroke-linecap="round" stroke-linejoin="round"/>
<path fill-rule="evenodd" clip-rule="evenodd" d="M122.745 192.327L119.036 207.741L137.491 229.479C137.491 229.479 149.241 233.811 150.837 235.362C152.418 236.897 155.55 240.165 155.945 240.636C156.325 241.108 155.504 241.898 154.79 242.035C154.075 242.172 153.498 242.035 153.498 242.035C153.498 242.035 155.808 246.018 155.413 246.945C155.033 247.888 153.194 247.036 153.194 247.036C153.194 247.036 153.026 248.572 152.13 248.632C151.217 248.678 149.849 247.416 149.849 247.416C149.849 247.416 149.576 248.678 148.056 248.435C146.551 248.192 145.791 246.671 145.791 246.671C145.791 246.671 144.818 248.906 142.598 246.656C137.323 241.305 138.935 243.798 133.462 239.451C130.817 237.368 129.282 235.453 129.282 235.453C129.282 235.453 104.473 221.726 103.759 210.462C103.044 199.213 107.62 185.076 107.62 185.076L122.745 192.327Z" fill="white" stroke="#272626" stroke-width="0.760066" stroke-linecap="round" stroke-linejoin="round"/>
<path d="M140.577 240.165C141.519 240.819 144.103 243.327 145.791 246.671" stroke="#272626" stroke-width="0.760066" stroke-linecap="round" stroke-linejoin="round"/>
<path d="M143.83 239.39C145.791 241.017 148.74 244.543 149.85 247.416" stroke="#272626" stroke-width="0.760066" stroke-linecap="round" stroke-linejoin="round"/>
<path d="M146.581 238.949C149.865 241.716 151.613 243.829 153.194 247.036" stroke="#272626" stroke-width="0.760066" stroke-linecap="round" stroke-linejoin="round"/>
<path d="M149.211 237.779C150.655 238.919 152.509 240.515 153.498 242.035" stroke="#272626" stroke-width="0.760066" stroke-linecap="round" stroke-linejoin="round"/>
<path d="M153.376 101.879C153.376 101.879 155.489 102.685 157.633 104.813C159.776 106.956 160.871 109.464 160.871 109.464" stroke="white" stroke-width="0.760066" stroke-linecap="round" stroke-linejoin="round"/>
<path d="M155.702 110.726C155.702 110.726 154.395 116.655 148.192 118.904C141.975 121.154 139.786 120.546 139.786 120.546" stroke="white" stroke-width="0.760066" stroke-linecap="round" stroke-linejoin="round"/>
<path d="M148.466 112.201C148.466 112.201 147.478 115.059 143.799 116.108C140.121 117.142 138.524 117.263 138.524 117.263" stroke="white" stroke-width="0.760066" stroke-linecap="round" stroke-linejoin="round"/>
<path d="M140.881 112.915C140.881 112.915 138.798 113.249 137.156 114.678C135.499 116.107 134.891 116.822 134.891 116.822" stroke="white" stroke-width="0.760066" stroke-linecap="round" stroke-linejoin="round"/>
<path d="M132.429 134.881C132.429 134.881 131.775 138.012 131.775 140.764C131.775 143.5 131.775 143.5 131.775 143.5V143.226" stroke="white" stroke-width="0.760066" stroke-linecap="round" stroke-linejoin="round"/>
<path d="M135.393 137.359C135.393 137.359 135.165 139.487 134.952 140.87C134.739 142.239 134.739 142.345 134.739 142.345" stroke="white" stroke-width="0.760066" stroke-linecap="round" stroke-linejoin="round"/>
<path d="M168.714 146.146L168.775 149.383" stroke="white" stroke-width="0.760066" stroke-linecap="round" stroke-linejoin="round"/>
<path d="M115.737 207.741H119.036" stroke="#272626" stroke-width="0.760066" stroke-linecap="round" stroke-linejoin="round"/>
<path d="M134.435 154.764L140.409 153.472C140.409 153.472 141.656 144.518 141.762 141.509C141.869 138.484 141.656 136.401 141.656 136.401C141.656 136.401 138.357 135.991 137.475 131.917C136.609 127.858 137.992 125.699 138.6 125M155.474 151.557L155.261 154.597L160.657 156.041L155.474 151.557Z" stroke="#272626" stroke-width="0.760066" stroke-linecap="round" stroke-linejoin="round"/>
<path d="M165.887 299.983C165.643 294.784 165.415 289.6 165.263 284.462C165.263 284.462 147.143 277.971 138.692 271.495C130.224 265.019 122.213 256.461 121.332 245.911C120.45 235.362 121.453 230.558 121.453 230.558M208.025 253.968C209.438 255.397 210.776 256.872 212.023 258.407C216.127 263.484 216.583 276.132 215.519 290.558L208.025 253.968Z" stroke="#272626" stroke-width="0.760066" stroke-linecap="round" stroke-linejoin="round"/>
<path fill-rule="evenodd" clip-rule="evenodd" d="M98.9706 257.707C98.9706 257.707 102.421 259.623 104.732 264.457C107.027 269.291 108.411 276.375 108.411 276.375C108.411 276.375 114.506 283.246 114.947 284.614C115.388 285.982 110.28 286.894 110.28 286.894C110.28 286.894 111.238 290.025 111.177 290.375C111.132 290.74 103.105 291.257 102.452 291.591C102.482 292.29 108.851 295.315 110.007 296.091C111.162 296.851 108.988 299.268 108.988 299.268C108.988 299.268 111.724 308.054 108.882 309.103C106.024 310.152 94.1061 308.176 94.1061 308.176L93.3917 317.342L70.4985 312.721L72.2467 295.148C72.2467 295.148 60.7241 281.862 64.7828 268.47C68.8568 255.078 88.1776 251.338 98.9706 257.707Z" fill="white" stroke="#272626" stroke-width="0.760066" stroke-linecap="round" stroke-linejoin="round"/>
<path d="M101.71 279.668C100.854 279.752 100.076 278.961 99.9709 277.9C99.866 276.84 100.474 275.911 101.33 275.827C102.185 275.742 102.964 276.533 103.069 277.594C103.174 278.655 102.565 279.583 101.71 279.668Z" fill="#272626"/>
<path d="M103.197 271.344C103.197 271.344 102.148 270.72 100.233 271.161C98.302 271.602 97.8459 272.59 97.8459 272.59" stroke="#272626" stroke-width="0.760066" stroke-linecap="round" stroke-linejoin="round"/>
<path fill-rule="evenodd" clip-rule="evenodd" d="M195.073 296.912C195.073 296.912 186.971 343.124 187.898 343.215C188.811 343.306 125.299 328.713 125.299 328.713L132.155 282.303L195.073 296.912Z" fill="#E16162"/>
<path fill-rule="evenodd" clip-rule="evenodd" d="M106.191 251.566C107.179 258.924 103.166 260.793 99.3812 261.918C95.5961 263.043 89.1355 262.998 89.5307 267.832C89.9108 272.65 91.4461 273.152 90.1388 275.782C88.8163 278.427 90.7316 283.139 88.7555 283.535C86.7793 283.915 86.9465 278.321 81.2308 280.449C75.5303 282.592 78.3274 290.39 80.9572 292.473C83.6022 294.571 84.0887 294.069 83.435 297.033C82.7661 299.998 81.0788 304.224 78.601 304.391C76.1232 304.558 76.8984 302.369 73.767 302.582C70.6355 302.795 70.0883 301.928 68.1729 297.854C66.2423 293.795 62.0164 293.856 60.2682 290.725C58.5049 287.593 59.3865 284.249 57.5168 281.163C55.647 278.092 49.9921 274.14 51.7555 269.884C53.5036 265.627 56.9695 262.663 56.9087 260.687C56.8631 258.711 56.8783 252.919 61.1347 252.752C65.391 252.585 70.1491 254.789 73.4173 251.019C76.6704 247.264 79.4523 243.084 83.2982 245.562C90.2148 250 104.717 240.606 106.191 251.566Z" fill="#272626" stroke="#272626" stroke-width="0.304026" stroke-linecap="round" stroke-linejoin="round"/>
<path d="M84.7117 290.77C84.7117 290.77 85.8062 286.955 84.1645 284.705C82.5075 282.455 80.4553 283.96 80.4553 283.96" stroke="#272626" stroke-width="0.760066" stroke-linecap="round" stroke-linejoin="round"/>
<path d="M81.5197 288.339L84.4688 285.207" stroke="#272626" stroke-width="0.760066" stroke-linecap="round" stroke-linejoin="round"/>
<path fill-rule="evenodd" clip-rule="evenodd" d="M117.911 335.204C117.911 335.204 126.956 334.033 127.929 333.106C128.902 332.179 129.738 330.126 128.203 328.667C126.652 327.208 122.745 323.681 122.745 323.681C122.745 323.681 129.632 318.665 131.729 317.053C133.842 315.442 136.442 313.876 135.986 312.341C135.514 310.79 131.836 312.721 128.932 313.891C126.029 315.062 119.872 317.859 119.872 317.859C119.872 317.859 118.839 316.415 117.577 315.974C116.3 315.533 115.89 316.02 115.312 315.7C114.719 315.381 113.549 313.724 112.667 314.119C111.785 314.515 111.223 314.94 110.341 314.363C109.475 313.77 107.878 313.679 106.541 314.636C105.203 315.579 98.8185 324.776 98.9401 323.985C99.0769 323.179 117.911 335.204 117.911 335.204Z" fill="white" stroke="#272626" stroke-width="0.760066" stroke-linecap="round" stroke-linejoin="round"/>
<path d="M188.993 299.77L145.836 289.996" stroke="#272626" stroke-width="0.760066" stroke-linecap="round" stroke-linejoin="round"/>
<path d="M141.473 287.578L137.141 290.147" stroke="#272626" stroke-width="0.760066" stroke-linecap="round" stroke-linejoin="round"/>
<path d="M137.84 286.62L140.881 291.105" stroke="#272626" stroke-width="0.760066" stroke-linecap="round" stroke-linejoin="round"/>
<path fill-rule="evenodd" clip-rule="evenodd" d="M187.442 305.987L183.004 332.012L159.943 326.843L164.291 300.651L187.442 305.987Z" fill="white"/>
<path fill-rule="evenodd" clip-rule="evenodd" d="M157.906 299.116L157.359 301.974L135.667 296.866L136.169 293.902L157.906 299.116Z" fill="white"/>
<path fill-rule="evenodd" clip-rule="evenodd" d="M156.477 306.519L155.93 309.377L141.428 305.972L141.929 303.008L156.477 306.519Z" fill="white"/>
<path d="M154.805 314.59L136.989 310.471" stroke="white" stroke-width="0.760066" stroke-linecap="round" stroke-linejoin="round"/>
<path d="M153.817 319.106L138.859 315.564" stroke="white" stroke-width="0.760066" stroke-linecap="round" stroke-linejoin="round"/>
<path d="M153.072 323.833L136.031 319.82" stroke="white" stroke-width="0.760066" stroke-linecap="round" stroke-linejoin="round"/>
<path fill-rule="evenodd" clip-rule="evenodd" d="M169.657 339.932C169.657 339.932 174.43 334.551 176.574 327.467C178.717 320.383 179.097 314.895 180.906 315.275C182.73 315.655 183.323 318.179 183.323 321.265C183.323 324.335 182.897 326.92 182.897 326.92L191.136 320.033L191.82 315.944C191.82 315.944 196.183 317.373 197.004 319.243C197.825 321.113 196.624 324.457 196.624 324.457C196.624 324.457 198.053 325.248 198.053 327.193C198.053 329.154 196.396 330.902 196.396 330.902C196.396 330.902 197.506 332.362 197.399 333.699C197.278 335.052 195.94 336.588 195.94 336.588C195.94 336.588 196.852 341.163 194.237 343.094C191.623 345.024 184.083 351.105 184.083 351.105L169.657 339.932Z" fill="white" stroke="#272626" stroke-width="0.760066" stroke-linecap="round" stroke-linejoin="round"/>
<path fill-rule="evenodd" clip-rule="evenodd" d="M127.443 342.941C127.443 342.941 120.526 329.99 111.892 326.083C109.551 325.034 105.264 323.773 100.05 322.511C100.05 322.511 99.1377 316.826 96.7815 315.898C94.4101 314.971 72.885 311.612 72.885 311.612C72.885 311.612 67.0781 310.243 65.7556 311.566C64.4331 312.873 62.6697 315.609 62.6697 315.609C61.0128 315.412 59.5839 315.275 58.4742 315.214C48.4869 314.667 39.9134 317.297 37.6028 332.893C35.581 346.651 37.4659 385.992 37.9524 395.112H152.722C166.084 381.553 174.673 370.608 186.758 351.059C185.755 338.305 172.59 335.751 169.869 338.107L137.263 366.23C137.263 366.23 128.917 345.298 127.443 342.941Z" fill="#E16162"/>
<path d="M141.747 377.919L137.263 366.229" stroke="#272626" stroke-width="0.760066" stroke-linecap="round" stroke-linejoin="round"/>
<path d="M103.197 362.977L114.4 395.112" stroke="#272626" stroke-width="0.760066" stroke-linecap="round" stroke-linejoin="round"/>
<path d="M183.976 355.513C183.976 355.513 183.627 348.52 178.261 344.279C172.879 340.038 166.586 340.95 166.586 340.95" stroke="#B74B4C" stroke-width="0.760066" stroke-linecap="round" stroke-linejoin="round"/>
<path d="M186.15 347.653L183.019 351.18" stroke="#B74B4C" stroke-width="0.760066" stroke-linecap="round" stroke-linejoin="round"/>
<path d="M184.356 343.732L180.891 347.062" stroke="#B74B4C" stroke-width="0.760066" stroke-linecap="round" stroke-linejoin="round"/>
<path d="M181.316 340.433L177.941 344.035" stroke="#B74B4C" stroke-width="0.760066" stroke-linecap="round" stroke-linejoin="round"/>
<path d="M177.516 338.26L174.415 342.06" stroke="#B74B4C" stroke-width="0.760066" stroke-linecap="round" stroke-linejoin="round"/>
<path d="M173.183 337.332L170.34 341.01" stroke="#B74B4C" stroke-width="0.760066" stroke-linecap="round" stroke-linejoin="round"/>
<path d="M193.082 318.65L191.136 320.033" stroke="#272626" stroke-width="0.760066" stroke-linecap="round" stroke-linejoin="round"/>
<path d="M118.079 318.65L119.872 317.859" stroke="#272626" stroke-width="0.760066" stroke-linecap="round" stroke-linejoin="round"/>
<path d="M82.082 253.253C82.082 253.253 78.5857 252.949 76.5336 254.302C74.4966 255.655 73.7365 258.148 73.7365 258.148" stroke="white" stroke-width="0.760066" stroke-linecap="round" stroke-linejoin="round"/>
<path d="M67.8384 277.591C67.8384 277.591 67.1239 281.483 68.0664 283.14C68.9937 284.782 70.1946 285.496 70.1946 285.496" stroke="white" stroke-width="0.760066" stroke-linecap="round" stroke-linejoin="round"/>
<path d="M63.6884 281.178C63.6884 281.178 62.0922 278.047 62.3659 275.751C62.6395 273.441 64.114 271.541 64.114 271.541" stroke="white" stroke-width="0.760066" stroke-linecap="round" stroke-linejoin="round"/>
<path d="M82.0513 258.651C82.781 256.811 85.7453 256.325 87.7214 256.811" stroke="white" stroke-width="0.760066" stroke-linecap="round" stroke-linejoin="round"/>
<path d="M95.4592 321.659C83.4198 319.06 74.8158 317.525 62.67 315.609" stroke="#B74B4C" stroke-width="0.760066" stroke-linecap="round" stroke-linejoin="round"/>
<path fill-rule="evenodd" clip-rule="evenodd" d="M328.221 311.657C328.221 311.657 325.044 335.493 316.258 355.908C310.375 369.574 301.452 387.162 296.192 397.317H229.565L259.253 296.942L328.221 311.657Z" fill="#272626"/>
<path fill-rule="evenodd" clip-rule="evenodd" d="M323.008 211.405L327.021 210.843C327.021 210.843 352.392 222.168 352.27 241.048C352.164 259.943 349.093 269.596 344.472 276.953C339.866 284.311 333.056 287.944 333.056 287.944L330.973 312.646C330.973 312.646 331.079 318.468 326.853 318.574C322.628 318.696 291.328 318.909 274.303 312.099C257.277 305.288 255.863 302.324 256.411 298.478C256.958 294.632 263.327 271.131 263.327 271.131C263.327 271.131 248.065 265.537 250.36 252.464C252.671 239.406 264.908 219.796 274.196 212.712C283.469 205.629 302.151 207.559 302.151 207.559C302.151 207.559 312.184 215.737 323.008 211.405Z" fill="#ABD1C6"/>
<path fill-rule="evenodd" clip-rule="evenodd" d="M299.749 163.141C299.749 163.141 296.283 180.151 295.979 186.824C295.675 193.513 297.621 198.499 299.932 200.475C302.258 202.467 305.921 203.029 305.921 203.029L304.538 207.498L302.151 207.559C302.151 207.559 300.175 219.066 312.746 220.617C325.318 222.152 327.02 210.842 327.02 210.842L325.257 209.794L326.899 194.638C329.073 193.635 333.983 191.02 334.94 187.569C336.187 183.115 332.387 181.945 332.387 181.945C332.387 181.945 340.565 164.858 321.776 159.052C303.002 153.245 299.749 163.141 299.749 163.141Z" fill="white"/>
<path fill-rule="evenodd" clip-rule="evenodd" d="M325.744 181.641C325.637 182.568 325.531 183.374 325.5 183.967C325.363 186.353 326.701 185.639 327.537 184.149C328.373 182.659 330.152 181.702 332.387 181.945C332.387 181.945 336.187 183.115 334.94 187.569C333.694 192.038 326.899 194.638 326.899 194.638C326.899 194.638 326.534 198.119 326.139 201.722C330.654 199.776 335.548 194.44 340.337 184.757C345.125 175.074 344.365 170.133 341.112 163.475C337.859 156.802 332.843 154.993 324.74 153.397C316.638 151.801 306.955 149.916 306.955 149.916C298.001 148.517 294.277 145.811 292.726 148.335C291.161 150.858 295.158 153.503 295.158 153.503C295.158 153.503 289.747 153.503 289.124 156.3C288.5 159.097 295.843 160.952 295.843 160.952C295.843 160.952 291.48 162.989 292.483 164.798C293.471 166.591 298.974 167.108 298.974 167.108C298.974 167.108 301.269 167.093 305.359 167.154C306.894 167.169 308.779 167.017 310.816 166.911C310.527 167.412 310.451 168.036 310.907 168.735C312.154 170.681 320.757 168.978 320.757 168.978C320.757 168.978 321.639 173.052 326.093 172.55C326.792 174.967 326.504 178.084 325.744 181.641Z" fill="#272626" stroke="#272626" stroke-width="0.304026" stroke-linecap="round" stroke-linejoin="round"/>
<path d="M313.647 182.918C314.347 183.086 315.108 182.419 315.346 181.429C315.583 180.438 315.208 179.498 314.507 179.33C313.807 179.162 313.046 179.829 312.808 180.82C312.57 181.811 312.946 182.75 313.647 182.918Z" fill="#272626"/>
<path d="M301.127 179.17C301.828 179.338 302.589 178.671 302.826 177.68C303.064 176.689 302.689 175.75 301.988 175.582C301.287 175.414 300.527 176.081 300.289 177.071C300.051 178.062 300.427 179.002 301.127 179.17Z" fill="#272626"/>
<path d="M306.848 178.236C306.848 178.236 303.671 185.046 304.416 186.612C305.176 188.177 307.35 187.843 307.35 187.843" stroke="#272626" stroke-width="0.760066" stroke-linecap="round" stroke-linejoin="round"/>
<path d="M332.934 184.97C329.757 185.365 327.158 188.208 326.702 191.278" stroke="#272626" stroke-width="0.760066" stroke-linecap="round" stroke-linejoin="round"/>
<path d="M331.11 188.816L328.921 187.083" stroke="#272626" stroke-width="0.760066" stroke-linecap="round" stroke-linejoin="round"/>
<path d="M314.008 175.545C314.008 175.545 314.905 175.561 316.319 176.093C317.733 176.625 318.371 177.309 318.371 177.309" stroke="#272626" stroke-width="0.760066" stroke-linecap="round" stroke-linejoin="round"/>
<path d="M300.677 172.505C302.288 172.247 303.915 172.885 305.222 173.782" stroke="#272626" stroke-width="0.760066" stroke-linecap="round" stroke-linejoin="round"/>
<path d="M299.962 159.204C302.455 158.109 306.149 157.121 310.892 157.091" stroke="white" stroke-width="0.760066" stroke-linecap="round" stroke-linejoin="round"/>
<path d="M301.497 153.23C304.188 153.078 305.89 153.032 309.083 153.473" stroke="white" stroke-width="0.760066" stroke-linecap="round" stroke-linejoin="round"/>
<path d="M308.338 161.909C309.828 161.256 311.728 160.633 314.039 160.237" stroke="white" stroke-width="0.760066" stroke-linecap="round" stroke-linejoin="round"/>
<path d="M332.721 178.92C332.873 177.719 332.995 176.351 332.98 174.967C332.98 174.314 332.949 173.645 332.873 172.991" stroke="white" stroke-width="0.760066" stroke-linecap="round" stroke-linejoin="round"/>
<path d="M335.761 177.126C335.959 175.363 336.05 173.219 335.807 171.213" stroke="white" stroke-width="0.760066" stroke-linecap="round" stroke-linejoin="round"/>
<path d="M339.455 176.32C339.607 175.134 339.683 173.888 339.637 172.672" stroke="white" stroke-width="0.760066" stroke-linecap="round" stroke-linejoin="round"/>
<path d="M307.198 195.96C306.224 195.96 305.435 194.994 305.435 193.802C305.435 192.609 306.224 191.643 307.198 191.643C308.172 191.643 308.962 192.609 308.962 193.802C308.962 194.994 308.172 195.96 307.198 195.96Z" fill="#272626" stroke="#272626" stroke-width="0.760066" stroke-linecap="round" stroke-linejoin="round"/>
<path d="M304.644 191.248C305.83 191.066 307.274 191.416 307.882 191.811" stroke="#272626" stroke-width="0.760066" stroke-linecap="round" stroke-linejoin="round"/>
<path fill-rule="evenodd" clip-rule="evenodd" d="M325.941 243.693L329.574 262.908C329.574 262.908 333.527 264.504 335.336 264.945C337.145 265.385 337.692 264.261 337.692 264.261C337.692 264.261 339.106 264.61 339.683 263.865C340.246 263.136 340.094 261.646 340.094 261.646C340.094 261.646 341.082 261.296 341.234 260.141C341.401 258.986 340.945 257.42 340.945 257.42C340.945 257.42 342.252 252.206 337.206 247.752C332.159 243.313 325.941 243.693 325.941 243.693Z" fill="white"/>
<path d="M331.581 258.711C331.581 258.711 334.515 260.384 335.67 261.584C336.825 262.801 337.692 264.26 337.692 264.26" stroke="#272626" stroke-width="0.760066" stroke-linecap="round" stroke-linejoin="round"/>
<path d="M331.14 252.753C331.14 252.753 334.317 254.76 336.324 256.705C338.33 258.651 340.094 261.646 340.094 261.646" stroke="#272626" stroke-width="0.760066" stroke-linecap="round" stroke-linejoin="round"/>
<path d="M330.973 248.268C330.973 248.268 333.633 248.876 336.111 250.989C338.574 253.102 340.945 257.419 340.945 257.419" stroke="#272626" stroke-width="0.760066" stroke-linecap="round" stroke-linejoin="round"/>
<path d="M263.327 271.131C263.327 271.131 270.989 274.187 282.739 273.974C294.475 273.746 304.948 269.246 304.948 269.246" stroke="#272626" stroke-width="0.760066" stroke-linecap="round" stroke-linejoin="round"/>
<path d="M260.104 248.223L303.078 248.481" stroke="#272626" stroke-width="0.760066" stroke-linecap="round" stroke-linejoin="round"/>
<path d="M277.13 225.542L270.213 248.283" stroke="#272626" stroke-width="0.760066" stroke-linecap="round" stroke-linejoin="round"/>
<path d="M331.49 235.21L330.562 244.27" stroke="#272626" stroke-width="0.760066" stroke-linecap="round" stroke-linejoin="round"/>
<path d="M321.715 224.964C321.715 224.964 313.856 226.469 309.661 227.427C305.465 228.4 302.516 229.19 302.516 229.19" stroke="#74A99A" stroke-width="0.760066" stroke-linecap="round" stroke-linejoin="round"/>
<path d="M317.657 221.772L318.295 225.634" stroke="#74A99A" stroke-width="0.760066" stroke-linecap="round" stroke-linejoin="round"/>
<path d="M314.875 222.365L315.437 226.211" stroke="#74A99A" stroke-width="0.760066" stroke-linecap="round" stroke-linejoin="round"/>
<path d="M311.713 223.019L312.26 226.865" stroke="#74A99A" stroke-width="0.760066" stroke-linecap="round" stroke-linejoin="round"/>
<path d="M308.703 223.657L309.281 227.518" stroke="#74A99A" stroke-width="0.760066" stroke-linecap="round" stroke-linejoin="round"/>
<path d="M306.043 224.235L306.393 228.202" stroke="#74A99A" stroke-width="0.760066" stroke-linecap="round" stroke-linejoin="round"/>
<path d="M277.784 321.767V331.419L259.223 397.317" stroke="white" stroke-width="0.760066" stroke-linecap="round" stroke-linejoin="round"/>
<path d="M318.234 324.017C318.234 324.017 316.425 325.324 313.689 326.434C310.937 327.528 308.353 328.288 308.353 328.288" stroke="white" stroke-width="0.760066" stroke-linecap="round" stroke-linejoin="round"/>
<path d="M316.821 330.112C316.821 330.112 314.647 331.389 313.522 331.814C312.397 332.225 312.002 332.498 312.002 332.498" stroke="white" stroke-width="0.760066" stroke-linecap="round" stroke-linejoin="round"/>
<path d="M299.749 163.141C299.749 163.141 296.283 180.151 295.979 186.824C295.675 193.513 297.621 198.499 299.932 200.475C302.258 202.466 305.921 203.029 305.921 203.029M325.257 209.793L326.899 194.638C329.073 193.634 333.983 191.02 334.94 187.569C336.187 183.115 332.387 181.945 332.387 181.945L325.257 209.793Z" stroke="#272626" stroke-width="0.760066" stroke-linecap="round" stroke-linejoin="round"/>
<path d="M318.614 199.533C318.614 199.533 316.562 201.798 313.005 202.664C309.448 203.531 305.921 203.029 305.921 203.029" stroke="#272626" stroke-width="0.760066" stroke-linecap="round" stroke-linejoin="round"/>
<path d="M306.043 222.836C300.981 221.012 297.652 214.551 297.652 207.331M330.167 212.438C330.167 212.438 328.009 220.358 321.427 223.702L330.167 212.438Z" stroke="#74A99A" stroke-width="0.760066" stroke-linecap="round" stroke-linejoin="round"/>
<path fill-rule="evenodd" clip-rule="evenodd" d="M318.994 221.499L306.423 224.128C306.423 224.128 305.875 220.997 305.875 220.815C305.875 220.617 299.141 216.695 298.7 215.236C298.275 213.776 299.278 212.515 299.278 212.515C299.278 212.515 298.548 211.359 298.898 210.189C299.263 209.003 299.688 208.76 299.688 208.76C299.688 208.76 299.096 207.27 299.688 206.525C300.297 205.796 301.193 205.583 301.193 205.583C301.193 205.583 299.354 202.999 299.597 201.858C299.84 200.703 301.862 201.418 301.862 201.418L311.135 204.914C311.135 204.914 314.799 197.04 317.489 198.134C319.937 199.122 315.65 203.865 315.65 207.939C315.65 211.998 318.994 221.499 318.994 221.499Z" fill="white" stroke="#272626" stroke-width="0.760066" stroke-linecap="round" stroke-linejoin="round"/>
<path d="M330.669 268.259L329.575 262.908L325.941 243.693L321.715 224.965L320.834 221.089L318.994 221.499L306.423 224.129L302.501 225.269C302.501 225.269 302.334 253.544 305.298 271.557C308.262 289.571 317.55 291.76 322.704 291.927C327.872 292.094 332.372 288.461 332.372 288.461" stroke="#272626" stroke-width="0.760066" stroke-linecap="round" stroke-linejoin="round"/>
<path fill-rule="evenodd" clip-rule="evenodd" d="M302.015 316.309L267.872 326.996L217.526 302.811L209.241 271.526L206.976 262.178L210.047 260.384L214.166 262.178C224.199 266.434 258.007 281.21 258.007 281.21L260.089 282.213C260.53 284.569 261.199 286.728 261.898 288.841L263.768 297.11L264.483 297.46L302.015 316.309Z" fill="#E16162"/>
<path d="M267.294 324.61L257.246 283.718L208.997 262.983" stroke="white" stroke-width="0.760066" stroke-linecap="round" stroke-linejoin="round"/>
<path d="M264.239 298.797L269.651 322.147" stroke="#272626" stroke-width="0.760066" stroke-linecap="round" stroke-linejoin="round"/>
<path d="M276.355 307.128L264.726 300.896" stroke="#272626" stroke-width="0.760066" stroke-linecap="round" stroke-linejoin="round"/>
<path d="M270.791 319.745L274.819 318.483L270.958 316.173" stroke="#272626" stroke-width="0.760066" stroke-linecap="round" stroke-linejoin="round"/>
<path d="M276.507 318.073L280.003 317.115L275.686 314.774" stroke="#272626" stroke-width="0.760066" stroke-linecap="round" stroke-linejoin="round"/>
<path d="M281.812 316.613L284.943 315.641L280.444 313.36" stroke="#272626" stroke-width="0.760066" stroke-linecap="round" stroke-linejoin="round"/>
<path d="M270.365 314.699L273.846 313.726L269.544 311.4" stroke="#272626" stroke-width="0.760066" stroke-linecap="round" stroke-linejoin="round"/>
<path d="M275.655 313.239L278.802 312.267L274.302 309.971" stroke="#272626" stroke-width="0.760066" stroke-linecap="round" stroke-linejoin="round"/>
<path d="M269.013 309.576L272.159 308.618L267.66 306.323" stroke="#272626" stroke-width="0.760066" stroke-linecap="round" stroke-linejoin="round"/>
</g>
<defs>
<linearGradient id="paint0_linear_1115_179" x1="741.5" y1="671" x2="-60" y2="112.5" gradientUnits="userSpaceOnUse">
<stop stop-color="#0A423F"/>
<stop offset="1" stop-color="#0A423F" stop-opacity="0"/>
</linearGradient>
<clipPath id="clip0_1115_179">
<rect width="500.017" height="376.59" fill="white" transform="matrix(-1 0 0 1 441 52.4102)"/>
</clipPath>
</defs>
</svg>
