<svg width="33" height="33" viewBox="0 0 33 33" fill="none" xmlns="http://www.w3.org/2000/svg">
<path d="M12.789 7.49414H10.9788C10.6789 7.49414 10.4357 7.73727 10.4357 8.03719V9.84737C10.4357 10.1473 10.6789 10.3904 10.9788 10.3904H12.789C13.0889 10.3904 13.332 10.1473 13.332 9.84737V8.03719C13.332 7.73727 13.0889 7.49414 12.789 7.49414Z" fill="#FFE2E5" stroke="#F64E60" stroke-width="0.72407" stroke-miterlimit="22.9256"/>
<path fill-rule="evenodd" clip-rule="evenodd" d="M14.9583 8.94287C17.6583 8.94287 20.3584 8.94287 23.0591 8.94287Z" fill="#FFE2E5"/>
<path d="M14.9583 8.94287C17.6583 8.94287 20.3584 8.94287 23.0591 8.94287" stroke="#F64E60" stroke-width="0.72407" stroke-miterlimit="22.9256" stroke-linecap="round" stroke-linejoin="round"/>
<path fill-rule="evenodd" clip-rule="evenodd" d="M10.7189 12.5542C12.3545 12.6042 13.9909 12.6541 15.6273 12.7041C16.8546 13.3767 18.0819 14.0494 19.3092 14.7221C18.8589 16.5011 18.4092 18.2794 17.9588 20.0577C16.4853 20.0172 15.0126 19.9774 13.5391 19.9375C12.0975 19.1186 10.6559 18.2997 9.21423 17.4815C9.71529 15.8386 10.2171 14.1964 10.7189 12.5542V12.5542Z" fill="#F64E60"/>
<path fill-rule="evenodd" clip-rule="evenodd" d="M18.21 14.1191L19.5394 14.8476C19.0753 16.6469 18.6112 18.4462 18.1478 20.2455C16.6555 20.1977 15.1632 20.1492 13.6716 20.1014L10.8035 18.415C12.298 15.8692 15.0517 14.1524 18.21 14.1191V14.1191Z" fill="#FFE2E5"/>
<path fill-rule="evenodd" clip-rule="evenodd" d="M10.7189 12.5542C12.3545 12.6042 13.9909 12.6541 15.6273 12.7041C16.8546 13.3767 18.0819 14.0494 19.3092 14.7221C18.8589 16.5011 18.4092 18.2794 17.9588 20.0577C16.4853 20.0172 15.0126 19.9774 13.5391 19.9375C12.0975 19.1186 10.6559 18.2997 9.21423 17.4815C9.71529 15.8386 10.2171 14.1964 10.7189 12.5542V12.5542Z" stroke="#F64E60" stroke-width="0.72407" stroke-miterlimit="22.9256" stroke-linecap="round" stroke-linejoin="round"/>
<path fill-rule="evenodd" clip-rule="evenodd" d="M17.9588 20.0576C18.4859 17.9766 19.0123 15.8949 19.5395 13.814C20.7052 13.814 21.871 13.814 23.0374 13.814C23.3756 15.3939 23.7137 16.9731 24.0526 18.553C24.5167 18.9795 24.9801 19.406 25.4443 19.8317C25.4443 20.9229 25.4443 22.0133 25.4443 23.1045H23.2655C23.2764 23.0213 23.2815 22.9365 23.2815 22.8504C23.2815 21.7338 22.3764 20.8288 21.2599 20.8288C20.1426 20.8288 19.2375 21.7338 19.2375 22.8504C19.2375 22.9365 19.2433 23.0213 19.2535 23.1045H13.1662C13.1763 23.0213 13.1821 22.9365 13.1821 22.8504C13.1821 21.7338 12.277 20.8288 11.1605 20.8288C10.5776 20.8288 10.0527 21.0749 9.68414 21.4696V19.8317C12.4421 19.9077 15.2008 19.9823 17.9588 20.0576V20.0576Z" fill="#F64E60"/>
<path fill-rule="evenodd" clip-rule="evenodd" d="M25.4117 19.802L25.4443 19.8317C25.4443 20.9229 25.4443 22.0133 25.4443 23.1045H23.2655C23.2764 23.0212 23.2815 22.9365 23.2815 22.8503C23.2815 21.7338 22.3764 20.8287 21.2599 20.8287C20.1426 20.8287 19.2375 21.7338 19.2375 22.8503C19.2375 22.9365 19.2433 23.0212 19.2535 23.1045H16.3145C17.8958 20.9489 20.4467 19.5493 23.3249 19.5493C24.0446 19.5493 24.7426 19.6369 25.4117 19.802Z" fill="#FFE2E5"/>
<path fill-rule="evenodd" clip-rule="evenodd" d="M17.9588 20.0576C18.4859 17.9766 19.0123 15.8949 19.5395 13.814C20.7052 13.814 21.871 13.814 23.0374 13.814C23.3756 15.3939 23.7137 16.9731 24.0526 18.553C24.5167 18.9795 24.9801 19.406 25.4443 19.8317C25.4443 20.9229 25.4443 22.0133 25.4443 23.1045H23.2655C23.2764 23.0213 23.2815 22.9365 23.2815 22.8504C23.2815 21.7338 22.3764 20.8288 21.2599 20.8288C20.1426 20.8288 19.2375 21.7338 19.2375 22.8504C19.2375 22.9365 19.2433 23.0213 19.2535 23.1045H13.1662C13.1763 23.0213 13.1821 22.9365 13.1821 22.8504C13.1821 21.7338 12.277 20.8288 11.1605 20.8288C10.5776 20.8288 10.0527 21.0749 9.68414 21.4696V19.8317C12.4421 19.9077 15.2008 19.9823 17.9588 20.0576V20.0576Z" stroke="#F64E60" stroke-width="0.72407" stroke-miterlimit="22.9256" stroke-linecap="round" stroke-linejoin="round"/>
<path d="M15.1386 14.1899C15.3015 13.6946 15.4644 13.1994 15.6273 12.7041" stroke="#F64E60" stroke-width="0.72407" stroke-miterlimit="22.9256" stroke-linecap="round" stroke-linejoin="round"/>
<path d="M14.5745 16.1455C14.2292 17.4097 13.8838 18.6732 13.5391 19.9375" stroke="#F64E60" stroke-width="0.72407" stroke-miterlimit="22.9256" stroke-linecap="round" stroke-linejoin="round"/>
<path fill-rule="evenodd" clip-rule="evenodd" d="M10.4546 13.4199C9.86518 13.4822 9.27651 13.5445 8.68711 13.6067C8.48075 14.2649 8.27367 14.9231 8.06659 15.582C8.54448 15.9028 9.02237 16.2235 9.50026 16.5443C9.81812 15.5031 10.136 14.4611 10.4546 13.4199V13.4199Z" fill="#F64E60" stroke="#F64E60" stroke-width="0.72407" stroke-miterlimit="22.9256" stroke-linecap="round" stroke-linejoin="round"/>
<path d="M11.1605 24.8718C12.277 24.8718 13.1821 23.9667 13.1821 22.8502C13.1821 21.7337 12.277 20.8286 11.1605 20.8286C10.044 20.8286 9.13892 21.7337 9.13892 22.8502C9.13892 23.9667 10.044 24.8718 11.1605 24.8718Z" fill="#F64E60" stroke="#F64E60" stroke-width="0.72407" stroke-miterlimit="22.9256" stroke-linecap="round" stroke-linejoin="round"/>
<path d="M21.2599 24.8718C22.3764 24.8718 23.2815 23.9667 23.2815 22.8502C23.2815 21.7337 22.3764 20.8286 21.2599 20.8286C20.1434 20.8286 19.2383 21.7337 19.2383 22.8502C19.2383 23.9667 20.1434 24.8718 21.2599 24.8718Z" fill="#F64E60" stroke="#F64E60" stroke-width="0.72407" stroke-miterlimit="22.9256" stroke-linecap="round" stroke-linejoin="round"/>
</svg>
